<svg id="Layer_1" data-name="Layer 1" xmlns="http://www.w3.org/2000/svg" xmlns:xlink="http://www.w3.org/1999/xlink" viewBox="0 0 825 576"><defs><style>.cls-1{fill:#fff;}.cls-2{fill:#231f20;}.cls-3{fill:#ed1c24;}.cls-4{fill:#a01d25;}.cls-5{fill:#2d2d2d;}.cls-6{fill:url(#linear-gradient);}.cls-7{fill:url(#linear-gradient-2);}.cls-8{fill:url(#linear-gradient-3);}</style><linearGradient id="linear-gradient" x1="365.73" y1="-158.17" x2="398.1" y2="-158.17" gradientUnits="userSpaceOnUse"><stop offset="0" stop-color="#d71c42"/><stop offset="0.99" stop-color="#13275d"/></linearGradient><linearGradient id="linear-gradient-2" x1="557.89" y1="-158.17" x2="590.26" y2="-158.17" xlink:href="#linear-gradient"/><linearGradient id="linear-gradient-3" x1="748.63" y1="-244.96" x2="791.79" y2="-244.96" xlink:href="#linear-gradient"/></defs><title>ecubeLogoForBlackBG</title><rect class="cls-1" x="249" width="192" height="288"/><rect class="cls-2" x="441" width="192" height="288"/><rect class="cls-3" x="633" width="192" height="288"/><rect class="cls-2" x="441" y="288" width="192" height="288"/><rect class="cls-3" x="633" y="288" width="192" height="288"/><polygon class="cls-2" points="71.88 349.12 143.93 384.25 72.12 418.91 0.07 383.77 71.88 349.12"/><polygon class="cls-4" points="0.07 422.97 0.07 383.77 72.12 418.91 72.12 456.8 0.07 422.97"/><polygon class="cls-3" points="72.12 456.8 72.12 418.91 143.93 384.25 143.93 424.42 72.12 456.8"/><polygon class="cls-1" points="82.71 363.69 113.96 378.93 106.59 382.48 82.63 370.79 58.62 382.38 82.59 394.07 75.22 397.62 51.26 385.93 44.7 389.1 68.66 400.79 61.3 404.34 37.34 392.65 30.05 389.1 37.41 385.55 43.97 382.38 51.33 378.83 75.34 367.24 81.73 364.16 82.71 363.69"/><polygon class="cls-1" points="23.95 494.23 7.64 494.23 7.64 490.14 23.63 490.14 23.63 483.03 7.64 483.03 7.64 470.97 23.63 470.97 23.63 463.86 0 463.86 0 483.03 0 490.14 0 501.23 23.95 501.23 23.95 494.23"/><path class="cls-1" d="M81,155,64.93,131.69a9.37,9.37,0,0,1,3.76-.77,12.55,12.55,0,0,1,3.65.51,9.14,9.14,0,0,1,3.17,1.73L81,126.72a21.24,21.24,0,0,0-5.8-3.36,18.61,18.61,0,0,0-13.73.29,18.63,18.63,0,0,0-5.94,4,19.17,19.17,0,0,0-4,6,18.78,18.78,0,0,0,0,14.53,18.66,18.66,0,0,0,9.93,9.93,18.18,18.18,0,0,0,7.24,1.46,19.27,19.27,0,0,0,6.63-1.17A17.36,17.36,0,0,0,81,155Zm-16.13-5a10.25,10.25,0,0,1-5.32-5.32,9.34,9.34,0,0,1-.8-3.83,9.48,9.48,0,0,1,.8-3.89,10.66,10.66,0,0,1,1-1.83l9.89,15.54a12.65,12.65,0,0,1-1.78.13A9.39,9.39,0,0,1,64.86,150.09Z" transform="translate(-24 341.67)"/><path class="cls-1" d="M111.05,144.78v-22.5h-7.59V145c0,.47,0,.91-.07,1.34L90.47,127.59v-5.31H82.88v22.5a19.2,19.2,0,0,0,1,6.58A12.48,12.48,0,0,0,86.75,156a11.61,11.61,0,0,0,4.41,2.75,16.87,16.87,0,0,0,5.67.91,17.7,17.7,0,0,0,5.83-.91,11.78,11.78,0,0,0,4.49-2.75,12.32,12.32,0,0,0,2.88-4.62A19.06,19.06,0,0,0,111.05,144.78Zm-18.79,6q-1.79-1.9-1.79-5.75V137.7l9.24,14.51a6.79,6.79,0,0,1-2.61.48A6.34,6.34,0,0,1,92.26,150.79Z" transform="translate(-24 341.67)"/><path class="cls-1" d="M140.87,153.82a9.77,9.77,0,0,0,1-4.44v-.27a10.89,10.89,0,0,0-.46-3.34,7.11,7.11,0,0,0-1.35-2.46,8.51,8.51,0,0,0-2.16-1.79,21.45,21.45,0,0,0-2.83-1.39,11.84,11.84,0,0,0,1.87-1.18,8,8,0,0,0,1.63-1.68,8.6,8.6,0,0,0,1.17-2.27,8.4,8.4,0,0,0,.45-2.83v-.32a8.36,8.36,0,0,0-.66-3.42,13.38,13.38,0,0,0-1.9-3,12.63,12.63,0,0,0-4.06-2.3,16.63,16.63,0,0,0-5.56-.85H114.3v37.37h14.09a21.23,21.23,0,0,0,5.49-.67,12.84,12.84,0,0,0,4.26-2A8.79,8.79,0,0,0,140.87,153.82Zm-7.75-20.43a3.7,3.7,0,0,1-.37,1.63,4.35,4.35,0,0,1-1,1.33,4.62,4.62,0,0,1-1.41.88,4.77,4.77,0,0,1-.56.18v-8.2a5.18,5.18,0,0,1,2.08,1.26A4,4,0,0,1,133.12,133.39ZM122,129h2.36v8.61H122Zm-.37,15h2.73v8.55h-2.73Zm12.46,4.41a3.49,3.49,0,0,1-1.5,3.19,6.37,6.37,0,0,1-2.81.9v-8.42a5.72,5.72,0,0,1,2.89,1,3.66,3.66,0,0,1,1.41,3Z" transform="translate(-24 341.67)"/><polygon class="cls-1" points="127.69 494.23 127.69 490.14 143.68 490.14 143.68 483.03 127.69 483.03 127.69 470.97 143.68 470.97 143.68 463.86 120.05 463.86 120.05 483.03 120.05 490.14 120.05 501.23 144 501.23 144 494.23 127.69 494.23"/><polygon class="cls-1" points="2.23 510.69 6.6 510.69 6.6 508.7 2.23 508.7 2.23 506.8 6.91 506.8 6.91 504.77 0 504.77 0 514.88 7.01 514.88 7.01 512.85 2.23 512.85 2.23 510.69"/><polygon class="cls-1" points="17.79 511.05 12.94 504.77 10.96 504.77 10.96 514.88 13.12 514.88 13.12 508.43 18.12 514.88 19.95 514.88 19.95 504.77 17.79 504.77 17.79 511.05"/><polygon class="cls-1" points="23.18 506.8 25.92 506.8 25.92 514.88 28.15 514.88 28.15 506.8 30.85 506.8 30.85 504.77 23.18 504.77 23.18 506.8"/><polygon class="cls-1" points="36.3 510.69 40.67 510.69 40.67 508.7 36.3 508.7 36.3 506.8 40.98 506.8 40.98 504.77 34.07 504.77 34.07 514.88 41.08 514.88 41.08 512.85 36.3 512.85 36.3 510.69"/><path class="cls-1" d="M76.7,166.44a3.1,3.1,0,0,0-1-2.37,3.34,3.34,0,0,0-2.42-1H69v10.11h2.22v-3.37h1.49l2.1,3.37h2.52l-2.47-3.9A3.07,3.07,0,0,0,76.7,166.44ZM73,167.88H71.25v-2.74h2a1.27,1.27,0,0,1,1.26,1.33A1.34,1.34,0,0,1,73,167.88Z" transform="translate(-24 341.67)"/><polygon class="cls-1" points="55.76 506.8 58.5 506.8 58.5 514.88 60.73 514.88 60.73 506.8 63.43 506.8 63.43 504.77 55.76 504.77 55.76 506.8"/><path class="cls-1" d="M93.07,163.1,88.9,173.22h2.38l.68-1.7h4.22l.68,1.7h2.38L95.06,163.1Zm-.48,6.63,1.48-3.67,1.47,3.67Z" transform="translate(-24 341.67)"/><rect class="cls-1" x="78.51" y="504.77" width="2.23" height="10.11"/><polygon class="cls-1" points="91.83 511.05 86.98 504.77 84.99 504.77 84.99 514.88 87.16 514.88 87.16 508.43 92.16 514.88 93.99 514.88 93.99 504.77 91.83 504.77 91.83 511.05"/><polygon class="cls-1" points="103.57 509.95 100.1 504.77 98.23 504.77 98.23 514.88 100.31 514.88 100.31 508.72 103.57 513.51 106.8 508.72 106.8 514.88 108.91 514.88 108.91 504.77 107.03 504.77 103.57 509.95"/><polygon class="cls-1" points="115.38 510.69 119.75 510.69 119.75 508.7 115.38 508.7 115.38 506.8 120.06 506.8 120.06 504.77 113.15 504.77 113.15 514.88 120.16 514.88 120.16 512.85 115.38 512.85 115.38 510.69"/><polygon class="cls-1" points="130.94 511.05 126.09 504.77 124.1 504.77 124.1 514.88 126.27 514.88 126.27 508.43 131.27 514.88 133.1 514.88 133.1 504.77 130.94 504.77 130.94 511.05"/><polygon class="cls-1" points="136.32 506.8 139.07 506.8 139.07 514.88 141.3 514.88 141.3 506.8 144 506.8 144 504.77 136.32 504.77 136.32 506.8"/><polygon class="cls-2" points="728.88 349.12 800.93 384.25 729.12 418.91 657.07 383.77 728.88 349.12"/><polygon class="cls-4" points="657.07 422.97 657.07 383.77 729.12 418.91 729.12 456.8 657.07 422.97"/><polygon class="cls-3" points="729.12 456.8 729.12 418.91 800.93 384.25 800.93 424.42 729.12 456.8"/><polygon class="cls-1" points="739.71 363.69 770.96 378.93 763.59 382.48 739.63 370.79 715.62 382.38 739.58 394.07 732.22 397.62 708.26 385.93 701.69 389.1 725.66 400.79 718.3 404.34 694.33 392.65 687.04 389.1 694.4 385.55 700.97 382.38 708.33 378.83 732.34 367.24 738.73 364.16 739.71 363.69"/><polygon class="cls-1" points="680.95 494.23 664.64 494.23 664.64 490.14 680.63 490.14 680.63 483.03 664.64 483.03 664.64 470.97 680.63 470.97 680.63 463.86 657 463.86 657 483.03 657 490.14 657 501.23 680.95 501.23 680.95 494.23"/><path class="cls-1" d="M738,155l-16.05-23.35a9.37,9.37,0,0,1,3.76-.77,12.56,12.56,0,0,1,3.65.51,9.15,9.15,0,0,1,3.17,1.73l5.48-6.44a21.23,21.23,0,0,0-5.8-3.36,18.61,18.61,0,0,0-13.73.29,18.62,18.62,0,0,0-5.94,4,19.15,19.15,0,0,0-4,6,18.78,18.78,0,0,0,0,14.53,18.65,18.65,0,0,0,9.93,9.93,18.18,18.18,0,0,0,7.24,1.46,19.27,19.27,0,0,0,6.63-1.17A17.35,17.35,0,0,0,738,155Zm-16.13-5a10.24,10.24,0,0,1-5.32-5.32,9.34,9.34,0,0,1-.8-3.83,9.48,9.48,0,0,1,.8-3.89,10.68,10.68,0,0,1,1-1.83l9.9,15.54a12.65,12.65,0,0,1-1.78.13A9.4,9.4,0,0,1,721.85,150.09Z" transform="translate(-24 341.67)"/><path class="cls-1" d="M768,144.78v-22.5h-7.59V145c0,.47,0,.91-.07,1.34l-12.92-18.79v-5.31h-7.59v22.5a19.2,19.2,0,0,0,1,6.58,12.47,12.47,0,0,0,2.86,4.62,11.59,11.59,0,0,0,4.41,2.75,16.87,16.87,0,0,0,5.67.91,17.7,17.7,0,0,0,5.83-.91,11.78,11.78,0,0,0,4.49-2.75,12.32,12.32,0,0,0,2.88-4.62A19.06,19.06,0,0,0,768,144.78Zm-18.79,6q-1.79-1.9-1.79-5.75V137.7l9.24,14.51a6.79,6.79,0,0,1-2.61.48A6.34,6.34,0,0,1,749.26,150.79Z" transform="translate(-24 341.67)"/><path class="cls-1" d="M797.87,153.82a9.77,9.77,0,0,0,1-4.44v-.27a10.89,10.89,0,0,0-.46-3.34,7.11,7.11,0,0,0-1.35-2.46,8.51,8.51,0,0,0-2.16-1.79,21.45,21.45,0,0,0-2.83-1.39,11.83,11.83,0,0,0,1.87-1.18,8,8,0,0,0,1.63-1.68,8.6,8.6,0,0,0,1.17-2.27,8.4,8.4,0,0,0,.46-2.83v-.32a8.36,8.36,0,0,0-.66-3.42,13.38,13.38,0,0,0-1.9-3,12.62,12.62,0,0,0-4.06-2.3,16.63,16.63,0,0,0-5.56-.85H771.3v37.37h14.09a21.23,21.23,0,0,0,5.49-.67,12.84,12.84,0,0,0,4.26-2A8.79,8.79,0,0,0,797.87,153.82Zm-7.75-20.43a3.7,3.7,0,0,1-.37,1.63,4.35,4.35,0,0,1-1,1.33,4.62,4.62,0,0,1-1.41.88,4.78,4.78,0,0,1-.56.18v-8.2a5.18,5.18,0,0,1,2.08,1.26A4,4,0,0,1,790.12,133.39ZM779,129h2.36v8.61H779Zm-.37,15h2.73v8.55h-2.73Zm12.46,4.41a3.49,3.49,0,0,1-1.5,3.19,6.37,6.37,0,0,1-2.81.9v-8.42a5.72,5.72,0,0,1,2.89,1,3.66,3.66,0,0,1,1.41,3Z" transform="translate(-24 341.67)"/><polygon class="cls-1" points="784.69 494.23 784.69 490.14 800.68 490.14 800.68 483.03 784.69 483.03 784.69 470.97 800.68 470.97 800.68 463.86 777.04 463.86 777.04 483.03 777.04 490.14 777.04 501.23 801 501.23 801 494.23 784.69 494.23"/><polygon class="cls-1" points="659.23 510.69 663.6 510.69 663.6 508.7 659.23 508.7 659.23 506.8 663.9 506.8 663.9 504.77 657 504.77 657 514.88 664.01 514.88 664.01 512.85 659.23 512.85 659.23 510.69"/><polygon class="cls-1" points="674.79 511.05 669.94 504.77 667.95 504.77 667.95 514.88 670.12 514.88 670.12 508.43 675.12 514.88 676.95 514.88 676.95 504.77 674.79 504.77 674.79 511.05"/><polygon class="cls-1" points="680.17 506.8 682.91 506.8 682.91 514.88 685.15 514.88 685.15 506.8 687.85 506.8 687.85 504.77 680.17 504.77 680.17 506.8"/><polygon class="cls-1" points="693.3 510.69 697.67 510.69 697.67 508.7 693.3 508.7 693.3 506.8 697.97 506.8 697.97 504.77 691.07 504.77 691.07 514.88 698.08 514.88 698.08 512.85 693.3 512.85 693.3 510.69"/><path class="cls-1" d="M733.7,166.44a3.1,3.1,0,0,0-1-2.37,3.34,3.34,0,0,0-2.42-1H726v10.11h2.22v-3.37h1.5l2.1,3.37h2.52l-2.47-3.9A3.07,3.07,0,0,0,733.7,166.44ZM730,167.88h-1.77v-2.74h2a1.27,1.27,0,0,1,1.26,1.33A1.35,1.35,0,0,1,730,167.88Z" transform="translate(-24 341.67)"/><polygon class="cls-1" points="712.75 506.8 715.5 506.8 715.5 514.88 717.73 514.88 717.73 506.8 720.43 506.8 720.43 504.77 712.75 504.77 712.75 506.8"/><path class="cls-1" d="M750.07,163.1l-4.18,10.11h2.38l.68-1.7h4.22l.68,1.7h2.38l-4.18-10.11Zm-.48,6.63,1.48-3.67,1.46,3.67Z" transform="translate(-24 341.67)"/><rect class="cls-1" x="735.51" y="504.77" width="2.23" height="10.11"/><polygon class="cls-1" points="748.83 511.05 743.98 504.77 741.99 504.77 741.99 514.88 744.15 514.88 744.15 508.43 749.16 514.88 750.99 514.88 750.99 504.77 748.83 504.77 748.83 511.05"/><polygon class="cls-1" points="760.56 509.95 757.1 504.77 755.23 504.77 755.23 514.88 757.31 514.88 757.31 508.72 760.56 513.51 763.8 508.72 763.8 514.88 765.9 514.88 765.9 504.77 764.03 504.77 760.56 509.95"/><polygon class="cls-1" points="772.38 510.69 776.75 510.69 776.75 508.7 772.38 508.7 772.38 506.8 777.05 506.8 777.05 504.77 770.15 504.77 770.15 514.88 777.16 514.88 777.16 512.85 772.38 512.85 772.38 510.69"/><polygon class="cls-1" points="787.93 511.05 783.09 504.77 781.1 504.77 781.1 514.88 783.26 514.88 783.26 508.43 788.27 514.88 790.1 514.88 790.1 504.77 787.93 504.77 787.93 511.05"/><polygon class="cls-1" points="793.32 506.8 796.06 506.8 796.06 514.88 798.3 514.88 798.3 506.8 801 506.8 801 504.77 793.32 504.77 793.32 506.8"/><polygon class="cls-2" points="291.05 211.48 291.05 182.09 345.09 208.44 345.09 236.85 291.05 211.48"/><polygon class="cls-5" points="345.09 236.85 345.09 208.44 398.95 182.45 398.95 212.57 345.09 236.85"/><polygon class="cls-1" points="344.91 156.09 398.95 182.45 345.09 208.44 291.05 182.09 344.91 156.09"/><path class="cls-6" d="M398.1-158.11l-16.16,7.8-16.21-7.91,16.16-7.8Zm-22.84-3.77c.75.47.47,1,.23,1.5s-.37.78.08,1a4,4,0,0,0,2,0,6.18,6.18,0,0,1,3.34.22c1,.49.7,1.12.44,1.62s-.37.77.07,1a4,4,0,0,0,2,0,6.2,6.2,0,0,1,3.34.22c1,.49.69,1.12.44,1.62s-.31.66-.11.86l1.4-.67c-.74-.47-.46-1-.22-1.5s.37-.77-.07-1a4,4,0,0,0-2,0,6.19,6.19,0,0,1-3.34-.22c-1-.49-.69-1.12-.44-1.62s.37-.77-.07-1a4,4,0,0,0-2,0,6.2,6.2,0,0,1-3.34-.22c-1-.49-.69-1.12-.44-1.62s.31-.66.11-.86l-1.41.68m-2.39,1.15c.75.47.46,1,.23,1.5s-.37.77.08,1a4,4,0,0,0,2,0,6.19,6.19,0,0,1,3.34.22c1,.49.7,1.12.44,1.62s-.36.77.08,1a4,4,0,0,0,2,0,6.2,6.2,0,0,1,3.34.22c1,.49.69,1.12.44,1.62s-.31.66-.11.86l1.4-.68c-.75-.47-.46-1-.22-1.5s.37-.78-.08-1a4,4,0,0,0-2,0,6.16,6.16,0,0,1-3.34-.22c-1-.49-.69-1.12-.44-1.62s.37-.78-.07-1a4,4,0,0,0-2,0,6.21,6.21,0,0,1-3.34-.22c-1-.49-.69-1.12-.44-1.62s.31-.66.11-.86l-1.4.68m7.17-3.46c.75.47.46,1,.23,1.5s-.37.78.08,1a4,4,0,0,0,2,0,6.21,6.21,0,0,1,3.33.23c1,.49.69,1.12.44,1.62s-.37.77.08,1a4,4,0,0,0,2,0,6.21,6.21,0,0,1,3.33.22c1,.49.69,1.12.44,1.62s-.31.66-.12.86l1.41-.68c-.74-.47-.46-1-.23-1.5s.37-.78-.08-1a4,4,0,0,0-2,0,6.21,6.21,0,0,1-3.34-.23c-1-.49-.69-1.12-.44-1.62s.37-.77-.08-1a4,4,0,0,0-2,0,6.2,6.2,0,0,1-3.33-.22c-1-.49-.69-1.12-.44-1.62s.31-.66.11-.86l-1.41.68m-9.56,4.62c.75.47.46,1,.23,1.5s-.37.77.08,1a4,4,0,0,0,2,0,6.19,6.19,0,0,1,3.33.22c1,.49.7,1.12.44,1.62s-.37.78.08,1a4,4,0,0,0,2,0,6.2,6.2,0,0,1,3.33.22c1,.49.69,1.12.44,1.62s-.31.66-.12.86l1.4-.68c-.74-.47-.46-1-.22-1.5s.37-.77-.08-1a4,4,0,0,0-2,0,6.17,6.17,0,0,1-3.34-.22c-1-.49-.69-1.12-.44-1.62s.37-.77-.07-1a4,4,0,0,0-2,0,6.19,6.19,0,0,1-3.34-.22c-1-.49-.69-1.12-.44-1.62s.31-.66.12-.86l-1.41.68m7.17-3.46c.75.47.46,1,.23,1.5s-.37.78.07,1a4,4,0,0,0,2,0,6.18,6.18,0,0,1,3.33.22c1,.49.7,1.12.44,1.62s-.37.77.08,1a4,4,0,0,0,2,0,6.2,6.2,0,0,1,3.34.22c1,.49.69,1.12.44,1.62s-.31.66-.12.86l1.41-.68c-.74-.47-.46-1-.22-1.5s.37-.77-.08-1a4,4,0,0,0-2,0,6.19,6.19,0,0,1-3.34-.23c-1-.49-.69-1.12-.44-1.62s.37-.77-.08-1a4,4,0,0,0-2,0,6.2,6.2,0,0,1-3.33-.22c-1-.49-.69-1.12-.44-1.62s.31-.66.11-.87l-1.41.68m11.16,1.33a1.82,1.82,0,0,1-.26.74c-.24.47-.36.77.08,1a4,4,0,0,0,2,0,14.14,14.14,0,0,1,1.52-.12l-3.38-1.65m-5.89-2.87a2,2,0,0,1-.26.74c-.24.47-.37.77.08,1a4,4,0,0,0,2,0,14.21,14.21,0,0,1,1.52-.12l-3.38-1.65m-2,12.83a1.89,1.89,0,0,1,.25-.74c.24-.48.37-.78-.08-1a4,4,0,0,0-2,0,14.89,14.89,0,0,1-1.52.12l3.39,1.65M375-154.63a1.94,1.94,0,0,1,.25-.73c.24-.47.37-.77-.08-1a4,4,0,0,0-2,0,14.22,14.22,0,0,1-1.51.12l3.38,1.65m-7.36-3.59,1.46.71a1.88,1.88,0,0,1,.25-.74c.2-.39.31-.66.11-.86l-1.83.88m28.5.1-1.46-.71a1.83,1.83,0,0,1-.26.74c-.19.38-.31.66-.11.86l1.83-.88" transform="translate(-24 341.67)"/><polygon class="cls-2" points="348.95 165.03 372.39 176.47 366.87 179.13 348.89 170.37 330.88 179.06 348.86 187.82 343.34 190.48 325.37 181.72 320.44 184.09 338.41 192.86 332.89 195.53 314.92 186.76 309.45 184.09 314.98 181.43 319.9 179.05 325.42 176.39 343.43 167.7 348.21 165.39 348.95 165.03"/><polygon class="cls-2" points="296.74 261.86 308.72 261.86 308.72 256.53 296.74 256.53 296.74 247.49 308.72 247.49 308.72 242.15 291 242.15 291 256.53 291 261.86 291 270.18 308.96 270.18 308.96 264.93 296.74 264.93 296.74 261.86"/><path class="cls-2" d="M338.64-75.58a14.1,14.1,0,0,0,4.45,3,13.66,13.66,0,0,0,5.43,1.1,14.44,14.44,0,0,0,5-.88,13,13,0,0,0,4.25-2.51l-12-17.51a7,7,0,0,1,2.82-.58,9.43,9.43,0,0,1,2.74.38,6.86,6.86,0,0,1,2.37,1.3l4.11-4.83a15.92,15.92,0,0,0-4.35-2.52,13.63,13.63,0,0,0-4.87-.88,13.63,13.63,0,0,0-5.43,1.1,13.93,13.93,0,0,0-4.45,3,14.42,14.42,0,0,0-3,4.47,13.75,13.75,0,0,0-1.1,5.47,13.65,13.65,0,0,0,1.1,5.43A14.12,14.12,0,0,0,338.64-75.58Zm7-3a7.73,7.73,0,0,1-2.38-1.62,7.75,7.75,0,0,1-1.62-2.38,7,7,0,0,1-.6-2.87,7.13,7.13,0,0,1,.6-2.92,8,8,0,0,1,.78-1.37l7.42,11.66a9.31,9.31,0,0,1-1.33.09A7,7,0,0,1,345.64-78.59Z" transform="translate(-24 341.67)"/><path class="cls-2" d="M380.29-82.57V-99.45H374.6v17.08c0,.35,0,.68,0,1l-9.69-14.1v-4h-5.69v16.88a14.42,14.42,0,0,0,.76,4.93,9.36,9.36,0,0,0,2.14,3.47,8.71,8.71,0,0,0,3.31,2.07,12.68,12.68,0,0,0,4.25.68,13.3,13.3,0,0,0,4.37-.68,8.81,8.81,0,0,0,3.37-2.07,9.21,9.21,0,0,0,2.16-3.47A14.26,14.26,0,0,0,380.29-82.57ZM366.2-78.06a6.08,6.08,0,0,1-1.34-4.31v-5.51L371.78-77a5.08,5.08,0,0,1-2,.36A4.76,4.76,0,0,1,366.2-78.06Z" transform="translate(-24 341.67)"/><path class="cls-2" d="M402-83.67A6.35,6.35,0,0,0,400.41-85a16.28,16.28,0,0,0-2.12-1,9,9,0,0,0,1.4-.88,6.08,6.08,0,0,0,1.22-1.26,6.41,6.41,0,0,0,.88-1.7,6.29,6.29,0,0,0,.34-2.12v-.24a6.27,6.27,0,0,0-.5-2.57,10.08,10.08,0,0,0-1.42-2.25,9.45,9.45,0,0,0-3-1.72,12.48,12.48,0,0,0-4.17-.64H382.72v28h10.57a15.87,15.87,0,0,0,4.12-.5,9.66,9.66,0,0,0,3.2-1.46,6.62,6.62,0,0,0,2-2.41,7.32,7.32,0,0,0,.72-3.33v-.2a8.16,8.16,0,0,0-.35-2.5A5.29,5.29,0,0,0,402-83.67Zm-5.18-7.44a2.75,2.75,0,0,1-.28,1.22,3.25,3.25,0,0,1-.74,1,3.47,3.47,0,0,1-1.06.66l-.42.13v-6.15a3.86,3.86,0,0,1,1.56.95A3,3,0,0,1,396.84-91.11Zm-8.34-3.33h1.77V-88H388.5Zm-.28,11.27h2.05v6.42h-2.05Zm9.34,3.31a2.62,2.62,0,0,1-1.12,2.39,4.73,4.73,0,0,1-2.1.67v-6.31a4.29,4.29,0,0,1,2.17.78,2.74,2.74,0,0,1,1.06,2.27Z" transform="translate(-24 341.67)"/><polygon class="cls-2" points="386.77 264.93 386.77 261.86 398.76 261.86 398.76 256.53 386.77 256.53 386.77 247.49 398.76 247.49 398.76 242.15 381.04 242.15 381.04 256.53 381.04 261.86 381.04 270.18 399 270.18 399 264.93 386.77 264.93"/><path class="cls-2" d="M320.68-67.88a3,3,0,0,0-2-.81H315V-60h1.92V-62.8h1.75a2.89,2.89,0,0,0,2-.84,2.76,2.76,0,0,0,.9-2.11A2.7,2.7,0,0,0,320.68-67.88Zm-1.36,3.06a1.21,1.21,0,0,1-.76.27h-1.64v-2.4h1.64a1.23,1.23,0,0,1,.76.29,1.08,1.08,0,0,1,.36.91A1.11,1.11,0,0,1,319.32-64.82Z" transform="translate(-24 341.67)"/><path class="cls-2" d="M331.15-65.82a2.67,2.67,0,0,0-.87-2,2.87,2.87,0,0,0-2.09-.84h-3.64V-60h1.91v-2.9h1.29l1.81,2.9h2.17l-2.12-3.36A2.64,2.64,0,0,0,331.15-65.82ZM328-64.59h-1.52v-2.36h1.69a1.09,1.09,0,0,1,1.08,1.15A1.16,1.16,0,0,1,328-64.59Z" transform="translate(-24 341.67)"/><path class="cls-2" d="M338.65-68.83a4.59,4.59,0,0,0-3.29,1.31A4.28,4.28,0,0,0,334-64.32a4.31,4.31,0,0,0,1.35,3.21,4.63,4.63,0,0,0,3.29,1.3,4.59,4.59,0,0,0,3.29-1.3,4.31,4.31,0,0,0,1.35-3.21,4.24,4.24,0,0,0-1.36-3.19A4.54,4.54,0,0,0,338.65-68.83Zm1.92,6.46a2.57,2.57,0,0,1-1.92.8,2.64,2.64,0,0,1-1.93-.79,2.7,2.7,0,0,1-.79-2,2.68,2.68,0,0,1,.79-1.95,2.61,2.61,0,0,1,1.93-.81,2.61,2.61,0,0,1,1.93.81,2.68,2.68,0,0,1,.79,1.95A2.67,2.67,0,0,1,340.57-62.37Z" transform="translate(-24 341.67)"/><path class="cls-2" d="M349.75-68.69h-3.29V-60h3.31a4.61,4.61,0,0,0,3.41-1.17,4.24,4.24,0,0,0,1.2-3.16,4.22,4.22,0,0,0-1.21-3.16A4.57,4.57,0,0,0,349.75-68.69Zm-.11,7h-1.26v-5.2h1.25a2.81,2.81,0,0,1,2.17.7,2.75,2.75,0,0,1,.64,1.92C352.44-62.73,351.69-61.74,349.64-61.74Z" transform="translate(-24 341.67)"/><path class="cls-2" d="M363-63.71c0,1.41-.59,2.11-1.77,2.11s-1.79-.7-1.79-2.11v-5h-1.92v5.18a3.48,3.48,0,0,0,1,2.72,3.84,3.84,0,0,0,2.66.94,3.77,3.77,0,0,0,2.64-.95,3.47,3.47,0,0,0,1.05-2.71v-5.18H363Z" transform="translate(-24 341.67)"/><path class="cls-2" d="M372.62-61.6a2.74,2.74,0,0,1-2-.77,2.65,2.65,0,0,1-.79-2,2.62,2.62,0,0,1,.8-2,2.69,2.69,0,0,1,2-.79,2.82,2.82,0,0,1,2.21,1l1.31-1.11a4.66,4.66,0,0,0-3.52-1.62,4.64,4.64,0,0,0-3.32,1.28,4.22,4.22,0,0,0-1.36,3.21,4.22,4.22,0,0,0,1.36,3.21,4.68,4.68,0,0,0,3.32,1.28,4.61,4.61,0,0,0,3.53-1.64l-1.31-1.11A2.84,2.84,0,0,1,372.62-61.6Z" transform="translate(-24 341.67)"/><polygon class="cls-2" points="354.61 274.72 356.97 274.72 356.97 281.67 358.89 281.67 358.89 274.72 361.22 274.72 361.22 272.97 354.61 272.97 354.61 274.72"/><rect class="cls-2" x="364.01" y="272.97" width="1.92" height="8.7"/><path class="cls-2" d="M397.77-68.83a4.6,4.6,0,0,0-3.3,1.31,4.28,4.28,0,0,0-1.35,3.19,4.32,4.32,0,0,0,1.35,3.21,4.64,4.64,0,0,0,3.3,1.3,4.59,4.59,0,0,0,3.29-1.3,4.31,4.31,0,0,0,1.35-3.21,4.24,4.24,0,0,0-1.36-3.19A4.54,4.54,0,0,0,397.77-68.83Zm1.92,6.46a2.57,2.57,0,0,1-1.92.8,2.64,2.64,0,0,1-1.94-.79,2.7,2.7,0,0,1-.79-2,2.68,2.68,0,0,1,.79-1.95,2.61,2.61,0,0,1,1.94-.81,2.61,2.61,0,0,1,1.93.81,2.68,2.68,0,0,1,.79,1.95A2.67,2.67,0,0,1,399.69-62.37Z" transform="translate(-24 341.67)"/><polygon class="cls-2" points="387.46 278.38 383.29 272.97 381.58 272.97 381.58 281.67 383.44 281.67 383.44 276.12 387.75 281.67 389.32 281.67 389.32 272.97 387.46 272.97 387.46 278.38"/><path class="cls-2" d="M420.78-65.1c-.21-.09-.46-.18-.75-.27l-.62-.21-.39-.19a.63.63,0,0,1-.34-.62c0-.41.41-.71,1-.71a1.86,1.86,0,0,1,1.56.67l1.29-1a3.34,3.34,0,0,0-2.9-1.42,3.18,3.18,0,0,0-2.06.67,2.14,2.14,0,0,0-.84,1.79c0,1.31.75,2,2.11,2.52.25.1.75.26,1,.35a2.91,2.91,0,0,1,.75.32.84.84,0,0,1,.47.72c0,.46-.41.86-1.3.86a2.36,2.36,0,0,1-2.18-1.15l-1.4,1a3.79,3.79,0,0,0,3.57,1.92c2.13,0,3.23-1,3.23-2.66C423-63.76,422.37-64.5,420.78-65.1Z" transform="translate(-24 341.67)"/><polygon class="cls-2" points="291.05 67.48 291.05 38.09 345.09 64.44 345.09 92.85 291.05 67.48"/><polygon class="cls-5" points="345.09 92.85 345.09 64.44 398.95 38.45 398.95 68.57 345.09 92.85"/><polygon class="cls-1" points="344.91 12.09 398.95 38.45 345.09 64.44 291.05 38.09 344.91 12.09"/><path class="cls-3" d="M398.1-302.11l-16.16,7.8-16.21-7.91,16.16-7.8Zm-22.84-3.77c.75.47.47,1,.23,1.5s-.37.78.08,1a4,4,0,0,0,2,0,6.18,6.18,0,0,1,3.34.22c1,.49.7,1.12.44,1.62s-.37.77.07,1a4,4,0,0,0,2,0,6.2,6.2,0,0,1,3.34.22c1,.49.69,1.12.44,1.62s-.31.66-.11.86l1.4-.67c-.74-.47-.46-1-.22-1.5s.37-.77-.07-1a4,4,0,0,0-2,0,6.19,6.19,0,0,1-3.34-.22c-1-.49-.69-1.12-.44-1.62s.37-.77-.07-1a4,4,0,0,0-2,0,6.2,6.2,0,0,1-3.34-.22c-1-.49-.69-1.12-.44-1.62s.31-.66.11-.86l-1.41.68m-2.39,1.15c.75.47.46,1,.23,1.5s-.37.77.08,1a4,4,0,0,0,2,0,6.19,6.19,0,0,1,3.34.22c1,.49.7,1.12.44,1.62s-.36.77.08,1a4,4,0,0,0,2,0,6.2,6.2,0,0,1,3.34.22c1,.49.69,1.12.44,1.62s-.31.66-.11.86l1.4-.68c-.75-.47-.46-1-.22-1.5s.37-.78-.08-1a4,4,0,0,0-2,0,6.16,6.16,0,0,1-3.34-.22c-1-.49-.69-1.12-.44-1.62s.37-.78-.07-1a4,4,0,0,0-2,0,6.21,6.21,0,0,1-3.34-.22c-1-.49-.69-1.12-.44-1.62s.31-.66.11-.86l-1.4.68m7.17-3.46c.75.47.46,1,.23,1.5s-.37.78.08,1a4,4,0,0,0,2,0,6.21,6.21,0,0,1,3.33.23c1,.49.69,1.12.44,1.62s-.37.77.08,1a4,4,0,0,0,2,0,6.21,6.21,0,0,1,3.33.22c1,.49.69,1.12.44,1.62s-.31.66-.12.86l1.41-.68c-.74-.47-.46-1-.23-1.5s.37-.78-.08-1a4,4,0,0,0-2,0,6.21,6.21,0,0,1-3.34-.23c-1-.49-.69-1.12-.44-1.62s.37-.77-.08-1a4,4,0,0,0-2,0,6.2,6.2,0,0,1-3.33-.22c-1-.49-.69-1.12-.44-1.62s.31-.66.11-.86l-1.41.68m-9.56,4.62c.75.47.46,1,.23,1.5s-.37.77.08,1a4,4,0,0,0,2,0,6.19,6.19,0,0,1,3.33.22c1,.49.7,1.12.44,1.62s-.37.78.08,1a4,4,0,0,0,2,0,6.2,6.2,0,0,1,3.33.22c1,.49.69,1.12.44,1.62s-.31.66-.12.86l1.4-.68c-.74-.47-.46-1-.22-1.5s.37-.77-.08-1a4,4,0,0,0-2,0,6.17,6.17,0,0,1-3.34-.22c-1-.49-.69-1.12-.44-1.62s.37-.77-.07-1a4,4,0,0,0-2,0,6.19,6.19,0,0,1-3.34-.22c-1-.49-.69-1.12-.44-1.62s.31-.66.12-.86l-1.41.68m7.17-3.46c.75.47.46,1,.23,1.5s-.37.78.07,1a4,4,0,0,0,2,0,6.18,6.18,0,0,1,3.33.22c1,.49.7,1.12.44,1.62s-.37.77.08,1a4,4,0,0,0,2,0,6.2,6.2,0,0,1,3.34.22c1,.49.69,1.12.44,1.62s-.31.66-.12.86l1.41-.68c-.74-.47-.46-1-.22-1.5s.37-.77-.08-1a4,4,0,0,0-2,0,6.19,6.19,0,0,1-3.34-.23c-1-.49-.69-1.12-.44-1.62s.37-.77-.08-1a4,4,0,0,0-2,0,6.2,6.2,0,0,1-3.33-.22c-1-.49-.69-1.12-.44-1.62s.31-.66.11-.87l-1.41.68m11.16,1.33a1.82,1.82,0,0,1-.26.74c-.24.47-.36.77.08,1a4,4,0,0,0,2,0,14.14,14.14,0,0,1,1.52-.12l-3.38-1.65m-5.89-2.87a2,2,0,0,1-.26.74c-.24.47-.37.77.08,1a4,4,0,0,0,2,0,14.21,14.21,0,0,1,1.52-.12l-3.38-1.65m-2,12.83a1.89,1.89,0,0,1,.25-.74c.24-.48.37-.78-.08-1a4,4,0,0,0-2,0,14.89,14.89,0,0,1-1.52.12l3.39,1.65M375-298.63a1.94,1.94,0,0,1,.25-.73c.24-.47.37-.77-.08-1a4,4,0,0,0-2,0,14.22,14.22,0,0,1-1.51.12l3.38,1.65m-7.36-3.59,1.46.71a1.88,1.88,0,0,1,.25-.74c.2-.39.31-.66.11-.86l-1.83.88m28.5.1-1.46-.71a1.83,1.83,0,0,1-.26.74c-.19.38-.31.66-.11.86l1.83-.88" transform="translate(-24 341.67)"/><polygon class="cls-2" points="348.95 21.03 372.39 32.47 366.87 35.13 348.89 26.37 330.88 35.05 348.86 43.82 343.34 46.48 325.37 37.72 320.44 40.09 338.41 48.86 332.89 51.53 314.92 42.76 309.45 40.09 314.98 37.43 319.9 35.05 325.42 32.39 343.43 23.7 348.21 21.39 348.95 21.03"/><polygon class="cls-2" points="296.74 117.86 308.72 117.86 308.72 112.53 296.74 112.53 296.74 103.49 308.72 103.49 308.72 98.15 291 98.15 291 112.53 291 117.86 291 126.18 308.96 126.18 308.96 120.93 296.74 120.93 296.74 117.86"/><path class="cls-2" d="M338.64-219.58a14.1,14.1,0,0,0,4.45,3,13.66,13.66,0,0,0,5.43,1.1,14.44,14.44,0,0,0,5-.88,13,13,0,0,0,4.25-2.51l-12-17.51a7,7,0,0,1,2.82-.58,9.43,9.43,0,0,1,2.74.38,6.86,6.86,0,0,1,2.37,1.3l4.11-4.83a15.92,15.92,0,0,0-4.35-2.52,13.63,13.63,0,0,0-4.87-.88,13.63,13.63,0,0,0-5.43,1.1,13.93,13.93,0,0,0-4.45,3,14.42,14.42,0,0,0-3,4.47,13.75,13.75,0,0,0-1.1,5.47,13.65,13.65,0,0,0,1.1,5.43A14.12,14.12,0,0,0,338.64-219.58Zm7-3a7.73,7.73,0,0,1-2.38-1.62,7.75,7.75,0,0,1-1.62-2.38,7,7,0,0,1-.6-2.87,7.13,7.13,0,0,1,.6-2.92,8,8,0,0,1,.78-1.37l7.42,11.66a9.31,9.31,0,0,1-1.33.09A7,7,0,0,1,345.64-222.59Z" transform="translate(-24 341.67)"/><path class="cls-2" d="M380.29-226.57v-16.88H374.6v17.08c0,.35,0,.68,0,1l-9.69-14.1v-4h-5.69v16.88a14.42,14.42,0,0,0,.76,4.93,9.36,9.36,0,0,0,2.14,3.47,8.71,8.71,0,0,0,3.31,2.07,12.68,12.68,0,0,0,4.25.68,13.3,13.3,0,0,0,4.37-.68,8.81,8.81,0,0,0,3.37-2.07,9.21,9.21,0,0,0,2.16-3.47A14.26,14.26,0,0,0,380.29-226.57Zm-14.09,4.51a6.08,6.08,0,0,1-1.34-4.31v-5.51L371.78-221a5.08,5.08,0,0,1-2,.36A4.76,4.76,0,0,1,366.2-222.06Z" transform="translate(-24 341.67)"/><path class="cls-2" d="M402-227.67a6.35,6.35,0,0,0-1.62-1.35,16.28,16.28,0,0,0-2.12-1,9,9,0,0,0,1.4-.88,6.08,6.08,0,0,0,1.22-1.26,6.41,6.41,0,0,0,.88-1.7,6.29,6.29,0,0,0,.34-2.12v-.24a6.27,6.27,0,0,0-.5-2.57,10.08,10.08,0,0,0-1.42-2.25,9.45,9.45,0,0,0-3-1.72,12.48,12.48,0,0,0-4.17-.64H382.72v28h10.57a15.87,15.87,0,0,0,4.12-.5,9.66,9.66,0,0,0,3.2-1.46,6.62,6.62,0,0,0,2-2.41,7.32,7.32,0,0,0,.72-3.33v-.2a8.16,8.16,0,0,0-.35-2.5A5.29,5.29,0,0,0,402-227.67Zm-5.18-7.44a2.75,2.75,0,0,1-.28,1.22,3.25,3.25,0,0,1-.74,1,3.47,3.47,0,0,1-1.06.66l-.42.13v-6.15a3.86,3.86,0,0,1,1.56.95A3,3,0,0,1,396.84-235.11Zm-8.34-3.33h1.77V-232H388.5Zm-.28,11.27h2.05v6.41h-2.05Zm9.34,3.31a2.62,2.62,0,0,1-1.12,2.39,4.73,4.73,0,0,1-2.1.67v-6.31a4.29,4.29,0,0,1,2.17.78,2.74,2.74,0,0,1,1.06,2.27Z" transform="translate(-24 341.67)"/><polygon class="cls-2" points="386.77 120.93 386.77 117.86 398.76 117.86 398.76 112.53 386.77 112.53 386.77 103.49 398.76 103.49 398.76 98.15 381.04 98.15 381.04 112.53 381.04 117.86 381.04 126.18 399 126.18 399 120.93 386.77 120.93"/><path class="cls-2" d="M320.68-211.88a3,3,0,0,0-2-.81H315v8.7h1.92v-2.81h1.75a2.89,2.89,0,0,0,2-.84,2.76,2.76,0,0,0,.9-2.11A2.7,2.7,0,0,0,320.68-211.88Zm-1.36,3.06a1.21,1.21,0,0,1-.76.27h-1.64v-2.4h1.64a1.23,1.23,0,0,1,.76.29,1.08,1.08,0,0,1,.36.91A1.11,1.11,0,0,1,319.32-208.82Z" transform="translate(-24 341.67)"/><path class="cls-2" d="M331.15-209.82a2.67,2.67,0,0,0-.87-2,2.87,2.87,0,0,0-2.09-.84h-3.64v8.7h1.91v-2.9h1.29l1.81,2.9h2.17l-2.12-3.36A2.64,2.64,0,0,0,331.15-209.82ZM328-208.59h-1.52v-2.36h1.69a1.09,1.09,0,0,1,1.08,1.15A1.16,1.16,0,0,1,328-208.59Z" transform="translate(-24 341.67)"/><path class="cls-2" d="M338.65-212.83a4.59,4.59,0,0,0-3.29,1.31,4.28,4.28,0,0,0-1.35,3.19,4.31,4.31,0,0,0,1.35,3.21,4.63,4.63,0,0,0,3.29,1.3,4.59,4.59,0,0,0,3.29-1.3,4.31,4.31,0,0,0,1.35-3.21,4.24,4.24,0,0,0-1.36-3.19A4.54,4.54,0,0,0,338.65-212.83Zm1.92,6.46a2.57,2.57,0,0,1-1.92.8,2.64,2.64,0,0,1-1.93-.79,2.7,2.7,0,0,1-.79-2,2.68,2.68,0,0,1,.79-1.95,2.61,2.61,0,0,1,1.93-.81,2.61,2.61,0,0,1,1.93.81,2.68,2.68,0,0,1,.79,1.95A2.67,2.67,0,0,1,340.57-206.37Z" transform="translate(-24 341.67)"/><path class="cls-2" d="M349.75-212.69h-3.29v8.7h3.31a4.61,4.61,0,0,0,3.41-1.17,4.24,4.24,0,0,0,1.2-3.16,4.22,4.22,0,0,0-1.21-3.16A4.57,4.57,0,0,0,349.75-212.69Zm-.11,7h-1.26v-5.2h1.25a2.81,2.81,0,0,1,2.17.7,2.75,2.75,0,0,1,.64,1.92C352.44-206.73,351.69-205.74,349.64-205.74Z" transform="translate(-24 341.67)"/><path class="cls-2" d="M363-207.71c0,1.41-.59,2.11-1.77,2.11s-1.79-.7-1.79-2.11v-5h-1.92v5.18a3.48,3.48,0,0,0,1,2.72,3.84,3.84,0,0,0,2.66.94,3.77,3.77,0,0,0,2.64-.95,3.47,3.47,0,0,0,1.05-2.71v-5.18H363Z" transform="translate(-24 341.67)"/><path class="cls-2" d="M372.62-205.6a2.74,2.74,0,0,1-2-.77,2.65,2.65,0,0,1-.79-2,2.62,2.62,0,0,1,.8-2,2.69,2.69,0,0,1,2-.79,2.82,2.82,0,0,1,2.21,1l1.31-1.11a4.66,4.66,0,0,0-3.52-1.62,4.64,4.64,0,0,0-3.32,1.28,4.22,4.22,0,0,0-1.36,3.21,4.22,4.22,0,0,0,1.36,3.21,4.68,4.68,0,0,0,3.32,1.28,4.61,4.61,0,0,0,3.53-1.64l-1.31-1.11A2.84,2.84,0,0,1,372.62-205.6Z" transform="translate(-24 341.67)"/><polygon class="cls-2" points="354.61 130.72 356.97 130.72 356.97 137.67 358.89 137.67 358.89 130.72 361.22 130.72 361.22 128.97 354.61 128.97 354.61 130.72"/><rect class="cls-2" x="364.01" y="128.97" width="1.92" height="8.7"/><path class="cls-2" d="M397.77-212.83a4.6,4.6,0,0,0-3.3,1.31,4.28,4.28,0,0,0-1.35,3.19,4.32,4.32,0,0,0,1.35,3.21,4.64,4.64,0,0,0,3.3,1.3,4.59,4.59,0,0,0,3.29-1.3,4.31,4.31,0,0,0,1.35-3.21,4.24,4.24,0,0,0-1.36-3.19A4.54,4.54,0,0,0,397.77-212.83Zm1.92,6.46a2.57,2.57,0,0,1-1.92.8,2.64,2.64,0,0,1-1.94-.79,2.7,2.7,0,0,1-.79-2,2.68,2.68,0,0,1,.79-1.95,2.61,2.61,0,0,1,1.94-.81,2.61,2.61,0,0,1,1.93.81,2.68,2.68,0,0,1,.79,1.95A2.67,2.67,0,0,1,399.69-206.37Z" transform="translate(-24 341.67)"/><polygon class="cls-2" points="387.46 134.38 383.29 128.97 381.58 128.97 381.58 137.67 383.44 137.67 383.44 132.12 387.75 137.67 389.32 137.67 389.32 128.97 387.46 128.97 387.46 134.38"/><path class="cls-2" d="M420.78-209.1c-.21-.09-.46-.18-.75-.27l-.62-.21-.39-.19a.63.63,0,0,1-.34-.62c0-.41.41-.71,1-.71a1.86,1.86,0,0,1,1.56.67l1.29-1a3.34,3.34,0,0,0-2.9-1.42,3.18,3.18,0,0,0-2.06.67,2.14,2.14,0,0,0-.84,1.79c0,1.31.75,2,2.11,2.52.25.1.75.26,1,.35a2.91,2.91,0,0,1,.75.32.84.84,0,0,1,.47.72c0,.46-.41.86-1.3.86a2.36,2.36,0,0,1-2.18-1.15l-1.4,1a3.79,3.79,0,0,0,3.57,1.92c2.13,0,3.23-1,3.23-2.66C423-207.76,422.37-208.5,420.78-209.1Z" transform="translate(-24 341.67)"/><polygon class="cls-2" points="483.22 211.48 483.22 182.09 537.26 208.44 537.26 236.85 483.22 211.48"/><polygon class="cls-5" points="537.26 236.85 537.26 208.44 591.12 182.45 591.12 212.57 537.26 236.85"/><polygon class="cls-1" points="537.07 156.09 591.12 182.45 537.26 208.44 483.22 182.09 537.07 156.09"/><path class="cls-7" d="M590.26-158.11l-16.16,7.8-16.21-7.91,16.16-7.8Zm-22.84-3.77c.75.47.47,1,.23,1.5s-.37.78.08,1a4,4,0,0,0,2,0,6.18,6.18,0,0,1,3.34.22c1,.49.7,1.12.44,1.62s-.37.77.07,1a4,4,0,0,0,2,0,6.2,6.2,0,0,1,3.34.22c1,.49.69,1.12.44,1.62s-.31.66-.11.86l1.4-.67c-.74-.47-.46-1-.22-1.5s.37-.77-.07-1a4,4,0,0,0-2,0,6.19,6.19,0,0,1-3.34-.22c-1-.49-.69-1.12-.44-1.62s.37-.77-.07-1a4,4,0,0,0-2,0,6.2,6.2,0,0,1-3.34-.22c-1-.49-.69-1.12-.44-1.62s.31-.66.11-.86l-1.41.68M565-160.73c.75.47.46,1,.23,1.5s-.37.77.08,1a4,4,0,0,0,2,0,6.19,6.19,0,0,1,3.34.22c1,.49.7,1.12.44,1.62s-.36.77.08,1a4,4,0,0,0,2,0,6.21,6.21,0,0,1,3.34.22c1,.49.69,1.12.44,1.62s-.31.66-.11.86l1.4-.68c-.75-.47-.46-1-.22-1.5s.37-.78-.08-1a4,4,0,0,0-2,0,6.16,6.16,0,0,1-3.34-.22c-1-.49-.69-1.12-.44-1.62s.37-.78-.08-1a4,4,0,0,0-2,0,6.21,6.21,0,0,1-3.34-.22c-1-.49-.69-1.12-.44-1.62s.31-.66.11-.86l-1.4.68m7.17-3.46c.75.47.46,1,.23,1.5s-.37.78.08,1a4,4,0,0,0,2,0,6.21,6.21,0,0,1,3.33.23c1,.49.7,1.12.44,1.62s-.37.77.08,1a4,4,0,0,0,2,0,6.21,6.21,0,0,1,3.33.22c1,.49.69,1.12.44,1.62s-.31.66-.12.86l1.41-.68c-.74-.47-.46-1-.23-1.5s.37-.78-.08-1a4,4,0,0,0-2,0,6.21,6.21,0,0,1-3.34-.23c-1-.49-.69-1.12-.44-1.62s.37-.77-.08-1a4,4,0,0,0-2,0,6.2,6.2,0,0,1-3.33-.22c-1-.49-.69-1.12-.44-1.62s.31-.66.11-.86l-1.4.68m-9.56,4.62c.75.47.46,1,.23,1.5s-.37.77.08,1a4,4,0,0,0,2,0,6.19,6.19,0,0,1,3.33.22c1,.49.7,1.12.44,1.62s-.37.78.08,1a4,4,0,0,0,2,0,6.19,6.19,0,0,1,3.33.22c1,.49.69,1.12.44,1.62s-.31.66-.12.86l1.4-.68c-.74-.47-.46-1-.22-1.5s.37-.77-.08-1a4,4,0,0,0-2,0,6.17,6.17,0,0,1-3.34-.22c-1-.49-.69-1.12-.44-1.62s.37-.77-.07-1a4,4,0,0,0-2,0,6.19,6.19,0,0,1-3.34-.22c-1-.49-.69-1.12-.44-1.62s.31-.66.12-.86l-1.41.68m7.17-3.46c.75.47.46,1,.23,1.5s-.37.78.07,1a4,4,0,0,0,2,0,6.18,6.18,0,0,1,3.34.22c1,.49.7,1.12.44,1.62s-.37.77.08,1a4,4,0,0,0,2,0,6.2,6.2,0,0,1,3.34.22c1,.49.69,1.12.44,1.62s-.31.66-.12.86l1.4-.68c-.74-.47-.46-1-.22-1.5s.37-.77-.07-1a4,4,0,0,0-2,0,6.19,6.19,0,0,1-3.34-.23c-1-.49-.69-1.12-.44-1.62s.37-.77-.07-1a4,4,0,0,0-2,0,6.2,6.2,0,0,1-3.33-.22c-1-.49-.69-1.12-.44-1.62s.31-.66.11-.87l-1.41.68M581-161.71a1.83,1.83,0,0,1-.26.74c-.24.47-.37.77.07,1a4,4,0,0,0,2,0,14.14,14.14,0,0,1,1.52-.12L581-161.71m-5.89-2.87a2,2,0,0,1-.26.74c-.24.47-.37.77.08,1a4,4,0,0,0,2,0,14.2,14.2,0,0,1,1.52-.12l-3.38-1.65m-2,12.83a1.9,1.9,0,0,1,.25-.74c.24-.48.37-.78-.08-1a4,4,0,0,0-2,0,14.89,14.89,0,0,1-1.52.12l3.38,1.65m-5.89-2.88a2,2,0,0,1,.25-.73c.24-.47.37-.77-.08-1a4,4,0,0,0-2,0,14.2,14.2,0,0,1-1.51.12l3.38,1.65m-7.36-3.59,1.46.71a1.88,1.88,0,0,1,.25-.74c.2-.39.31-.66.11-.86l-1.83.88m28.5.1-1.46-.71a1.84,1.84,0,0,1-.26.74c-.19.38-.31.66-.11.86l1.83-.88" transform="translate(-24 341.67)"/><polygon class="cls-2" points="541.12 165.03 564.56 176.47 559.03 179.13 541.06 170.37 523.05 179.06 541.02 187.82 535.5 190.48 517.53 181.72 512.61 184.09 530.58 192.86 525.06 195.53 507.09 186.76 501.62 184.09 507.14 181.43 512.06 179.05 517.59 176.39 535.59 167.7 540.38 165.39 541.12 165.03"/><polygon class="cls-1" points="488.9 261.86 500.89 261.86 500.89 256.53 488.9 256.53 488.9 247.49 500.89 247.49 500.89 242.15 483.17 242.15 483.17 256.53 483.17 261.86 483.17 270.18 501.13 270.18 501.13 264.93 488.9 264.93 488.9 261.86"/><path class="cls-1" d="M530.8-75.58a14.1,14.1,0,0,0,4.45,3,13.66,13.66,0,0,0,5.43,1.1,14.44,14.44,0,0,0,5-.88,13,13,0,0,0,4.25-2.51l-12-17.51a7,7,0,0,1,2.82-.58,9.43,9.43,0,0,1,2.74.38,6.86,6.86,0,0,1,2.37,1.3l4.11-4.83a15.92,15.92,0,0,0-4.35-2.52,13.63,13.63,0,0,0-4.87-.88,13.63,13.63,0,0,0-5.43,1.1,13.93,13.93,0,0,0-4.45,3,14.42,14.42,0,0,0-3,4.47,13.75,13.75,0,0,0-1.1,5.47,13.65,13.65,0,0,0,1.1,5.43A14.12,14.12,0,0,0,530.8-75.58Zm7-3a7.73,7.73,0,0,1-2.38-1.62,7.75,7.75,0,0,1-1.62-2.38,7,7,0,0,1-.6-2.87,7.13,7.13,0,0,1,.6-2.92,8,8,0,0,1,.78-1.37L542-78.09a9.31,9.31,0,0,1-1.33.09A7,7,0,0,1,537.81-78.59Z" transform="translate(-24 341.67)"/><path class="cls-1" d="M572.46-82.57V-99.45h-5.69v17.08c0,.35,0,.68,0,1L557-95.47v-4h-5.69v16.88a14.42,14.42,0,0,0,.76,4.93,9.36,9.36,0,0,0,2.14,3.47,8.71,8.71,0,0,0,3.31,2.07,12.68,12.68,0,0,0,4.25.68,13.29,13.29,0,0,0,4.37-.68,8.81,8.81,0,0,0,3.37-2.07,9.21,9.21,0,0,0,2.16-3.47A14.27,14.27,0,0,0,572.46-82.57Zm-14.09,4.51A6.08,6.08,0,0,1,557-82.37v-5.51L564-77a5.08,5.08,0,0,1-2,.36A4.76,4.76,0,0,1,558.36-78.06Z" transform="translate(-24 341.67)"/><path class="cls-1" d="M594.19-83.67A6.36,6.36,0,0,0,592.57-85a16.27,16.27,0,0,0-2.12-1,9,9,0,0,0,1.4-.88,6,6,0,0,0,1.22-1.26,6.41,6.41,0,0,0,.88-1.7A6.29,6.29,0,0,0,594.3-92v-.24a6.27,6.27,0,0,0-.5-2.57,10.07,10.07,0,0,0-1.42-2.25,9.46,9.46,0,0,0-3-1.72,12.48,12.48,0,0,0-4.17-.64H574.89v28h10.57a15.86,15.86,0,0,0,4.12-.5,9.66,9.66,0,0,0,3.2-1.46,6.62,6.62,0,0,0,2-2.41,7.32,7.32,0,0,0,.72-3.33v-.2a8.15,8.15,0,0,0-.35-2.5A5.27,5.27,0,0,0,594.19-83.67ZM589-91.11a2.75,2.75,0,0,1-.28,1.22,3.27,3.27,0,0,1-.74,1,3.48,3.48,0,0,1-1.06.66l-.42.13v-6.15a3.85,3.85,0,0,1,1.56.95A3,3,0,0,1,589-91.11Zm-8.34-3.33h1.77V-88h-1.77Zm-.28,11.27h2.05v6.42h-2.05Zm9.34,3.31a2.62,2.62,0,0,1-1.12,2.39,4.73,4.73,0,0,1-2.1.67v-6.31a4.28,4.28,0,0,1,2.16.78,2.74,2.74,0,0,1,1.06,2.27Z" transform="translate(-24 341.67)"/><polygon class="cls-1" points="578.94 264.93 578.94 261.86 590.93 261.86 590.93 256.53 578.94 256.53 578.94 247.49 590.93 247.49 590.93 242.15 573.2 242.15 573.2 256.53 573.2 261.86 573.2 270.18 591.17 270.18 591.17 264.93 578.94 264.93"/><path class="cls-1" d="M512.85-67.88a3,3,0,0,0-2-.81h-3.67V-60h1.92V-62.8h1.75a2.89,2.89,0,0,0,2-.84,2.76,2.76,0,0,0,.9-2.11A2.7,2.7,0,0,0,512.85-67.88Zm-1.36,3.06a1.21,1.21,0,0,1-.76.27h-1.64v-2.4h1.64a1.23,1.23,0,0,1,.76.29,1.08,1.08,0,0,1,.36.91A1.11,1.11,0,0,1,511.49-64.82Z" transform="translate(-24 341.67)"/><path class="cls-1" d="M523.32-65.82a2.67,2.67,0,0,0-.87-2,2.87,2.87,0,0,0-2.08-.84h-3.65V-60h1.91v-2.9h1.29l1.81,2.9h2.17l-2.12-3.36A2.64,2.64,0,0,0,523.32-65.82Zm-3.17,1.24h-1.52v-2.36h1.69a1.09,1.09,0,0,1,1.08,1.15A1.16,1.16,0,0,1,520.15-64.59Z" transform="translate(-24 341.67)"/><path class="cls-1" d="M530.82-68.83a4.59,4.59,0,0,0-3.29,1.31,4.28,4.28,0,0,0-1.35,3.19,4.31,4.31,0,0,0,1.35,3.21,4.63,4.63,0,0,0,3.29,1.3,4.59,4.59,0,0,0,3.29-1.3,4.31,4.31,0,0,0,1.35-3.21,4.24,4.24,0,0,0-1.36-3.19A4.54,4.54,0,0,0,530.82-68.83Zm1.92,6.46a2.57,2.57,0,0,1-1.92.8,2.64,2.64,0,0,1-1.93-.79,2.7,2.7,0,0,1-.79-2,2.68,2.68,0,0,1,.79-1.95,2.61,2.61,0,0,1,1.93-.81,2.61,2.61,0,0,1,1.93.81,2.68,2.68,0,0,1,.79,1.95A2.67,2.67,0,0,1,532.74-62.37Z" transform="translate(-24 341.67)"/><path class="cls-1" d="M541.92-68.69h-3.29V-60h3.31a4.61,4.61,0,0,0,3.41-1.17,4.24,4.24,0,0,0,1.2-3.16,4.22,4.22,0,0,0-1.21-3.16A4.57,4.57,0,0,0,541.92-68.69Zm-.11,7h-1.26v-5.2h1.25a2.81,2.81,0,0,1,2.17.7,2.75,2.75,0,0,1,.64,1.92C544.6-62.73,543.86-61.74,541.81-61.74Z" transform="translate(-24 341.67)"/><path class="cls-1" d="M555.12-63.71c0,1.41-.59,2.11-1.77,2.11s-1.79-.7-1.79-2.11v-5h-1.92v5.18a3.48,3.48,0,0,0,1,2.72,3.84,3.84,0,0,0,2.66.94A3.77,3.77,0,0,0,556-60.8,3.47,3.47,0,0,0,557-63.51v-5.18h-1.92Z" transform="translate(-24 341.67)"/><path class="cls-1" d="M564.78-61.6a2.74,2.74,0,0,1-2-.77,2.65,2.65,0,0,1-.79-2,2.62,2.62,0,0,1,.8-2,2.69,2.69,0,0,1,2-.79,2.83,2.83,0,0,1,2.21,1l1.31-1.11a4.66,4.66,0,0,0-3.52-1.62,4.64,4.64,0,0,0-3.32,1.28,4.22,4.22,0,0,0-1.36,3.21,4.22,4.22,0,0,0,1.36,3.21,4.68,4.68,0,0,0,3.32,1.28,4.61,4.61,0,0,0,3.53-1.64L567-62.6A2.84,2.84,0,0,1,564.78-61.6Z" transform="translate(-24 341.67)"/><polygon class="cls-1" points="546.78 274.72 549.14 274.72 549.14 281.67 551.06 281.67 551.06 274.72 553.38 274.72 553.38 272.97 546.78 272.97 546.78 274.72"/><rect class="cls-1" x="556.17" y="272.97" width="1.92" height="8.7"/><path class="cls-1" d="M589.94-68.83a4.6,4.6,0,0,0-3.3,1.31,4.29,4.29,0,0,0-1.35,3.19,4.32,4.32,0,0,0,1.35,3.21,4.64,4.64,0,0,0,3.3,1.3,4.59,4.59,0,0,0,3.29-1.3,4.31,4.31,0,0,0,1.35-3.21,4.24,4.24,0,0,0-1.36-3.19A4.54,4.54,0,0,0,589.94-68.83Zm1.92,6.46a2.57,2.57,0,0,1-1.92.8,2.64,2.64,0,0,1-1.93-.79,2.7,2.7,0,0,1-.79-2,2.68,2.68,0,0,1,.79-1.95,2.61,2.61,0,0,1,1.93-.81,2.61,2.61,0,0,1,1.93.81,2.68,2.68,0,0,1,.79,1.95A2.67,2.67,0,0,1,591.86-62.37Z" transform="translate(-24 341.67)"/><polygon class="cls-1" points="579.63 278.38 575.46 272.97 573.75 272.97 573.75 281.67 575.6 281.67 575.6 276.12 579.91 281.67 581.49 281.67 581.49 272.97 579.63 272.97 579.63 278.38"/><path class="cls-1" d="M612.95-65.1c-.21-.09-.46-.18-.75-.27l-.62-.21-.39-.19a.63.63,0,0,1-.34-.62c0-.41.41-.71,1-.71a1.86,1.86,0,0,1,1.56.67l1.29-1a3.34,3.34,0,0,0-2.9-1.42,3.19,3.19,0,0,0-2.06.67,2.14,2.14,0,0,0-.84,1.79c0,1.31.75,2,2.11,2.52.25.1.75.26,1,.35a2.92,2.92,0,0,1,.75.32.84.84,0,0,1,.47.72c0,.46-.41.86-1.3.86a2.37,2.37,0,0,1-2.18-1.15l-1.4,1a3.79,3.79,0,0,0,3.57,1.92c2.13,0,3.23-1,3.23-2.66C615.17-63.76,614.53-64.5,612.95-65.1Z" transform="translate(-24 341.67)"/><polygon class="cls-2" points="483.22 67.48 483.22 38.09 537.26 64.44 537.26 92.85 483.22 67.48"/><polygon class="cls-5" points="537.26 92.85 537.26 64.44 591.12 38.45 591.12 68.57 537.26 92.85"/><polygon class="cls-1" points="537.07 12.09 591.12 38.45 537.26 64.44 483.22 38.09 537.07 12.09"/><path class="cls-3" d="M590.26-302.11l-16.16,7.8-16.21-7.91,16.16-7.8Zm-22.84-3.77c.75.47.47,1,.23,1.5s-.37.78.08,1a4,4,0,0,0,2,0,6.18,6.18,0,0,1,3.34.22c1,.49.7,1.12.44,1.62s-.37.77.07,1a4,4,0,0,0,2,0,6.2,6.2,0,0,1,3.34.22c1,.49.69,1.12.44,1.62s-.31.66-.11.86l1.4-.67c-.74-.47-.46-1-.22-1.5s.37-.77-.07-1a4,4,0,0,0-2,0,6.19,6.19,0,0,1-3.34-.22c-1-.49-.69-1.12-.44-1.62s.37-.77-.07-1a4,4,0,0,0-2,0,6.2,6.2,0,0,1-3.34-.22c-1-.49-.69-1.12-.44-1.62s.31-.66.11-.86l-1.41.68M565-304.73c.75.47.46,1,.23,1.5s-.37.77.08,1a4,4,0,0,0,2,0,6.19,6.19,0,0,1,3.34.22c1,.49.7,1.12.44,1.62s-.36.77.08,1a4,4,0,0,0,2,0,6.21,6.21,0,0,1,3.34.22c1,.49.69,1.12.44,1.62s-.31.66-.11.86l1.4-.68c-.75-.47-.46-1-.22-1.5s.37-.78-.08-1a4,4,0,0,0-2,0,6.16,6.16,0,0,1-3.34-.22c-1-.49-.69-1.12-.44-1.62s.37-.78-.08-1a4,4,0,0,0-2,0,6.21,6.21,0,0,1-3.34-.22c-1-.49-.69-1.12-.44-1.62s.31-.66.11-.86l-1.4.68m7.17-3.46c.75.47.46,1,.23,1.5s-.37.78.08,1a4,4,0,0,0,2,0,6.21,6.21,0,0,1,3.33.23c1,.49.7,1.12.44,1.62s-.37.77.08,1a4,4,0,0,0,2,0,6.21,6.21,0,0,1,3.33.22c1,.49.69,1.12.44,1.62s-.31.66-.12.86l1.41-.68c-.74-.47-.46-1-.23-1.5s.37-.78-.08-1a4,4,0,0,0-2,0,6.21,6.21,0,0,1-3.34-.23c-1-.49-.69-1.12-.44-1.62s.37-.77-.08-1a4,4,0,0,0-2,0,6.2,6.2,0,0,1-3.33-.22c-1-.49-.69-1.12-.44-1.62s.31-.66.11-.86l-1.4.68m-9.56,4.62c.75.47.46,1,.23,1.5s-.37.77.08,1a4,4,0,0,0,2,0,6.19,6.19,0,0,1,3.33.22c1,.49.7,1.12.44,1.62s-.37.78.08,1a4,4,0,0,0,2,0,6.19,6.19,0,0,1,3.33.22c1,.49.69,1.12.44,1.62s-.31.66-.12.86l1.4-.68c-.74-.47-.46-1-.22-1.5s.37-.77-.08-1a4,4,0,0,0-2,0,6.17,6.17,0,0,1-3.34-.22c-1-.49-.69-1.12-.44-1.62s.37-.77-.07-1a4,4,0,0,0-2,0,6.19,6.19,0,0,1-3.34-.22c-1-.49-.69-1.12-.44-1.62s.31-.66.12-.86l-1.41.68m7.17-3.46c.75.47.46,1,.23,1.5s-.37.78.07,1a4,4,0,0,0,2,0,6.18,6.18,0,0,1,3.34.22c1,.49.7,1.12.44,1.62s-.37.77.08,1a4,4,0,0,0,2,0,6.2,6.2,0,0,1,3.34.22c1,.49.69,1.12.44,1.62s-.31.66-.12.86l1.4-.68c-.74-.47-.46-1-.22-1.5s.37-.77-.07-1a4,4,0,0,0-2,0,6.19,6.19,0,0,1-3.34-.23c-1-.49-.69-1.12-.44-1.62s.37-.77-.07-1a4,4,0,0,0-2,0,6.2,6.2,0,0,1-3.33-.22c-1-.49-.69-1.12-.44-1.62s.31-.66.11-.87l-1.41.68M581-305.71a1.83,1.83,0,0,1-.26.74c-.24.47-.37.77.07,1a4,4,0,0,0,2,0,14.14,14.14,0,0,1,1.52-.12L581-305.71m-5.89-2.87a2,2,0,0,1-.26.74c-.24.47-.37.77.08,1a4,4,0,0,0,2,0,14.2,14.2,0,0,1,1.52-.12l-3.38-1.65m-2,12.83a1.9,1.9,0,0,1,.25-.74c.24-.48.37-.78-.08-1a4,4,0,0,0-2,0,14.89,14.89,0,0,1-1.52.12l3.38,1.65m-5.89-2.88a2,2,0,0,1,.25-.73c.24-.47.37-.77-.08-1a4,4,0,0,0-2,0,14.2,14.2,0,0,1-1.51.12l3.38,1.65m-7.36-3.59,1.46.71a1.88,1.88,0,0,1,.25-.74c.2-.39.31-.66.11-.86l-1.83.88m28.5.1-1.46-.71a1.84,1.84,0,0,1-.26.74c-.19.38-.31.66-.11.86l1.83-.88" transform="translate(-24 341.67)"/><polygon class="cls-2" points="541.12 21.03 564.56 32.47 559.03 35.13 541.06 26.37 523.05 35.05 541.02 43.82 535.5 46.48 517.53 37.72 512.61 40.09 530.58 48.86 525.06 51.53 507.09 42.76 501.62 40.09 507.14 37.43 512.06 35.05 517.59 32.39 535.59 23.7 540.38 21.39 541.12 21.03"/><polygon class="cls-1" points="488.9 117.86 500.89 117.86 500.89 112.53 488.9 112.53 488.9 103.49 500.89 103.49 500.89 98.15 483.17 98.15 483.17 112.53 483.17 117.86 483.17 126.18 501.13 126.18 501.13 120.93 488.9 120.93 488.9 117.86"/><path class="cls-1" d="M530.8-219.58a14.1,14.1,0,0,0,4.45,3,13.66,13.66,0,0,0,5.43,1.1,14.44,14.44,0,0,0,5-.88,13,13,0,0,0,4.25-2.51l-12-17.51a7,7,0,0,1,2.82-.58,9.43,9.43,0,0,1,2.74.38,6.86,6.86,0,0,1,2.37,1.3l4.11-4.83a15.92,15.92,0,0,0-4.35-2.52,13.63,13.63,0,0,0-4.87-.88,13.63,13.63,0,0,0-5.43,1.1,13.93,13.93,0,0,0-4.45,3,14.42,14.42,0,0,0-3,4.47,13.75,13.75,0,0,0-1.1,5.47,13.65,13.65,0,0,0,1.1,5.43A14.12,14.12,0,0,0,530.8-219.58Zm7-3a7.73,7.73,0,0,1-2.38-1.62,7.75,7.75,0,0,1-1.62-2.38,7,7,0,0,1-.6-2.87,7.13,7.13,0,0,1,.6-2.92,8,8,0,0,1,.78-1.37L542-222.09a9.31,9.31,0,0,1-1.33.09A7,7,0,0,1,537.81-222.59Z" transform="translate(-24 341.67)"/><path class="cls-1" d="M572.46-226.57v-16.88h-5.69v17.08c0,.35,0,.68,0,1L557-239.47v-4h-5.69v16.88a14.42,14.42,0,0,0,.76,4.93,9.36,9.36,0,0,0,2.14,3.47,8.71,8.71,0,0,0,3.31,2.07,12.68,12.68,0,0,0,4.25.68,13.29,13.29,0,0,0,4.37-.68,8.81,8.81,0,0,0,3.37-2.07,9.21,9.21,0,0,0,2.16-3.47A14.27,14.27,0,0,0,572.46-226.57Zm-14.09,4.51a6.08,6.08,0,0,1-1.34-4.31v-5.51L564-221a5.08,5.08,0,0,1-2,.36A4.76,4.76,0,0,1,558.36-222.06Z" transform="translate(-24 341.67)"/><path class="cls-1" d="M594.19-227.67a6.36,6.36,0,0,0-1.62-1.35,16.27,16.27,0,0,0-2.12-1,9,9,0,0,0,1.4-.88,6,6,0,0,0,1.22-1.26,6.41,6.41,0,0,0,.88-1.7,6.29,6.29,0,0,0,.34-2.12v-.24a6.27,6.27,0,0,0-.5-2.57,10.07,10.07,0,0,0-1.42-2.25,9.46,9.46,0,0,0-3-1.72,12.48,12.48,0,0,0-4.17-.64H574.89v28h10.57a15.86,15.86,0,0,0,4.12-.5,9.66,9.66,0,0,0,3.2-1.46,6.62,6.62,0,0,0,2-2.41,7.32,7.32,0,0,0,.72-3.33v-.2a8.15,8.15,0,0,0-.35-2.5A5.27,5.27,0,0,0,594.19-227.67ZM589-235.11a2.75,2.75,0,0,1-.28,1.22,3.27,3.27,0,0,1-.74,1,3.48,3.48,0,0,1-1.06.66l-.42.13v-6.15a3.85,3.85,0,0,1,1.56.95A3,3,0,0,1,589-235.11Zm-8.34-3.33h1.77V-232h-1.77Zm-.28,11.27h2.05v6.41h-2.05Zm9.34,3.31a2.62,2.62,0,0,1-1.12,2.39,4.73,4.73,0,0,1-2.1.67v-6.31a4.28,4.28,0,0,1,2.16.78,2.74,2.74,0,0,1,1.06,2.27Z" transform="translate(-24 341.67)"/><polygon class="cls-1" points="578.94 120.93 578.94 117.86 590.93 117.86 590.93 112.53 578.94 112.53 578.94 103.49 590.93 103.49 590.93 98.15 573.2 98.15 573.2 112.53 573.2 117.86 573.2 126.18 591.17 126.18 591.17 120.93 578.94 120.93"/><path class="cls-1" d="M512.85-211.88a3,3,0,0,0-2-.81h-3.67v8.7h1.92v-2.81h1.75a2.89,2.89,0,0,0,2-.84,2.76,2.76,0,0,0,.9-2.11A2.7,2.7,0,0,0,512.85-211.88Zm-1.36,3.06a1.21,1.21,0,0,1-.76.27h-1.64v-2.4h1.64a1.23,1.23,0,0,1,.76.29,1.08,1.08,0,0,1,.36.91A1.11,1.11,0,0,1,511.49-208.82Z" transform="translate(-24 341.67)"/><path class="cls-1" d="M523.32-209.82a2.67,2.67,0,0,0-.87-2,2.87,2.87,0,0,0-2.08-.84h-3.65v8.7h1.91v-2.9h1.29l1.81,2.9h2.17l-2.12-3.36A2.64,2.64,0,0,0,523.32-209.82Zm-3.17,1.24h-1.52v-2.36h1.69a1.09,1.09,0,0,1,1.08,1.15A1.16,1.16,0,0,1,520.15-208.59Z" transform="translate(-24 341.67)"/><path class="cls-1" d="M530.82-212.83a4.59,4.59,0,0,0-3.29,1.31,4.28,4.28,0,0,0-1.35,3.19,4.31,4.31,0,0,0,1.35,3.21,4.63,4.63,0,0,0,3.29,1.3,4.59,4.59,0,0,0,3.29-1.3,4.31,4.31,0,0,0,1.35-3.21,4.24,4.24,0,0,0-1.36-3.19A4.54,4.54,0,0,0,530.82-212.83Zm1.92,6.46a2.57,2.57,0,0,1-1.92.8,2.64,2.64,0,0,1-1.93-.79,2.7,2.7,0,0,1-.79-2,2.68,2.68,0,0,1,.79-1.95,2.61,2.61,0,0,1,1.93-.81,2.61,2.61,0,0,1,1.93.81,2.68,2.68,0,0,1,.79,1.95A2.67,2.67,0,0,1,532.74-206.37Z" transform="translate(-24 341.67)"/><path class="cls-1" d="M541.92-212.69h-3.29v8.7h3.31a4.61,4.61,0,0,0,3.41-1.17,4.24,4.24,0,0,0,1.2-3.16,4.22,4.22,0,0,0-1.21-3.16A4.57,4.57,0,0,0,541.92-212.69Zm-.11,7h-1.26v-5.2h1.25a2.81,2.81,0,0,1,2.17.7,2.75,2.75,0,0,1,.64,1.92C544.6-206.73,543.86-205.74,541.81-205.74Z" transform="translate(-24 341.67)"/><path class="cls-1" d="M555.12-207.71c0,1.41-.59,2.11-1.77,2.11s-1.79-.7-1.79-2.11v-5h-1.92v5.18a3.48,3.48,0,0,0,1,2.72,3.84,3.84,0,0,0,2.66.94,3.77,3.77,0,0,0,2.64-.95,3.47,3.47,0,0,0,1.05-2.71v-5.18h-1.92Z" transform="translate(-24 341.67)"/><path class="cls-1" d="M564.78-205.6a2.74,2.74,0,0,1-2-.77,2.65,2.65,0,0,1-.79-2,2.62,2.62,0,0,1,.8-2,2.69,2.69,0,0,1,2-.79,2.83,2.83,0,0,1,2.21,1l1.31-1.11a4.66,4.66,0,0,0-3.52-1.62,4.64,4.64,0,0,0-3.32,1.28,4.22,4.22,0,0,0-1.36,3.21,4.22,4.22,0,0,0,1.36,3.21,4.68,4.68,0,0,0,3.32,1.28,4.61,4.61,0,0,0,3.53-1.64L567-206.6A2.84,2.84,0,0,1,564.78-205.6Z" transform="translate(-24 341.67)"/><polygon class="cls-1" points="546.78 130.72 549.14 130.72 549.14 137.67 551.06 137.67 551.06 130.72 553.38 130.72 553.38 128.97 546.78 128.97 546.78 130.72"/><rect class="cls-1" x="556.17" y="128.97" width="1.92" height="8.7"/><path class="cls-1" d="M589.94-212.83a4.6,4.6,0,0,0-3.3,1.31,4.29,4.29,0,0,0-1.35,3.19,4.32,4.32,0,0,0,1.35,3.21,4.64,4.64,0,0,0,3.3,1.3,4.59,4.59,0,0,0,3.29-1.3,4.31,4.31,0,0,0,1.35-3.21,4.24,4.24,0,0,0-1.36-3.19A4.54,4.54,0,0,0,589.94-212.83Zm1.92,6.46a2.57,2.57,0,0,1-1.92.8,2.64,2.64,0,0,1-1.93-.79,2.7,2.7,0,0,1-.79-2,2.68,2.68,0,0,1,.79-1.95,2.61,2.61,0,0,1,1.93-.81,2.61,2.61,0,0,1,1.93.81,2.68,2.68,0,0,1,.79,1.95A2.67,2.67,0,0,1,591.86-206.37Z" transform="translate(-24 341.67)"/><polygon class="cls-1" points="579.63 134.38 575.46 128.97 573.75 128.97 573.75 137.67 575.6 137.67 575.6 132.12 579.91 137.67 581.49 137.67 581.49 128.97 579.63 128.97 579.63 134.38"/><path class="cls-1" d="M612.95-209.1c-.21-.09-.46-.18-.75-.27l-.62-.21-.39-.19a.63.63,0,0,1-.34-.62c0-.41.41-.71,1-.71a1.86,1.86,0,0,1,1.56.67l1.29-1a3.34,3.34,0,0,0-2.9-1.42,3.19,3.19,0,0,0-2.06.67,2.14,2.14,0,0,0-.84,1.79c0,1.31.75,2,2.11,2.52.25.1.75.26,1,.35a2.92,2.92,0,0,1,.75.32.84.84,0,0,1,.47.72c0,.46-.41.86-1.3.86a2.37,2.37,0,0,1-2.18-1.15l-1.4,1a3.79,3.79,0,0,0,3.57,1.92c2.13,0,3.23-1,3.23-2.66C615.17-207.76,614.53-208.5,612.95-209.1Z" transform="translate(-24 341.67)"/><polygon class="cls-2" points="657.07 134.02 657.07 94.82 729.12 129.96 729.12 167.84 657.07 134.02"/><polygon class="cls-5" points="729.12 167.84 729.12 129.96 800.93 95.3 800.93 135.47 729.12 167.84"/><polygon class="cls-1" points="728.88 60.16 800.93 95.3 729.12 129.96 657.07 94.82 728.88 60.16"/><path class="cls-8" d="M791.79-244.89l-21.55,10.4L748.63-245l21.54-10.4Zm-30.45-5c1,.63.62,1.38.31,2s-.49,1,.1,1.32a5.34,5.34,0,0,0,2.72.06,8.25,8.25,0,0,1,4.45.29c1.35.66.93,1.49.58,2.16s-.49,1,.1,1.32a5.31,5.31,0,0,0,2.73.06,8.25,8.25,0,0,1,4.45.29c1.35.66.92,1.49.58,2.16-.26.51-.42.88-.15,1.15l1.87-.9c-1-.63-.61-1.38-.29-2s.49-1-.1-1.32a5.37,5.37,0,0,0-2.72-.06,8.25,8.25,0,0,1-4.45-.3c-1.35-.66-.92-1.49-.58-2.16s.49-1-.1-1.32a5.37,5.37,0,0,0-2.72-.05,8.26,8.26,0,0,1-4.45-.29c-1.34-.66-.92-1.49-.58-2.16.26-.51.42-.88.15-1.15l-1.87.9m-3.18,1.54c1,.63.62,1.39.3,2s-.49,1,.1,1.32a5.36,5.36,0,0,0,2.72.06,8.25,8.25,0,0,1,4.45.29c1.34.66.93,1.49.58,2.16s-.49,1,.1,1.32a5.36,5.36,0,0,0,2.73.06,8.25,8.25,0,0,1,4.45.29c1.34.66.92,1.49.58,2.16-.25.51-.42.88-.15,1.14l1.87-.9c-1-.63-.61-1.38-.3-2s.49-1-.1-1.32a5.34,5.34,0,0,0-2.72-.06,8.24,8.24,0,0,1-4.45-.3c-1.34-.66-.92-1.49-.58-2.16s.49-1-.1-1.32a5.34,5.34,0,0,0-2.72-.06,8.26,8.26,0,0,1-4.45-.29c-1.35-.66-.92-1.49-.58-2.16.26-.52.42-.88.15-1.15l-1.87.9m9.56-4.62c1,.63.62,1.39.31,2s-.49,1,.1,1.32a5.31,5.31,0,0,0,2.72.06,8.27,8.27,0,0,1,4.44.3c1.34.66.93,1.49.59,2.16s-.49,1,.1,1.32a5.3,5.3,0,0,0,2.73.06,8.28,8.28,0,0,1,4.44.3c1.34.66.92,1.49.59,2.16-.26.52-.42.88-.16,1.15l1.87-.9c-1-.63-.61-1.38-.3-2s.49-1-.1-1.32a5.33,5.33,0,0,0-2.72-.05,8.27,8.27,0,0,1-4.45-.3c-1.34-.66-.92-1.49-.59-2.16s.49-1-.1-1.32a5.34,5.34,0,0,0-2.72-.06,8.26,8.26,0,0,1-4.44-.3c-1.34-.66-.92-1.49-.59-2.16.26-.52.42-.88.15-1.15l-1.87.9M755-246.84c1,.63.62,1.39.31,2s-.49,1,.1,1.32a5.33,5.33,0,0,0,2.72.06,8.25,8.25,0,0,1,4.44.3c1.35.66.93,1.49.59,2.16s-.49,1,.1,1.32a5.31,5.31,0,0,0,2.73.06,8.26,8.26,0,0,1,4.44.3c1.35.66.92,1.49.59,2.16-.26.52-.42.88-.16,1.15l1.87-.9c-1-.63-.61-1.38-.3-2s.49-1-.1-1.32a5.31,5.31,0,0,0-2.72-.06,8.25,8.25,0,0,1-4.46-.3c-1.35-.66-.92-1.49-.58-2.16s.49-1-.1-1.32a5.33,5.33,0,0,0-2.72-.06,8.24,8.24,0,0,1-4.45-.29c-1.34-.66-.92-1.49-.58-2.16.26-.52.42-.88.15-1.15l-1.87.9m9.56-4.62c1,.63.62,1.39.31,2s-.49,1,.1,1.32a5.34,5.34,0,0,0,2.72.06,8.25,8.25,0,0,1,4.45.29c1.34.66.93,1.49.58,2.16s-.49,1,.1,1.32a5.29,5.29,0,0,0,2.73.06,8.25,8.25,0,0,1,4.45.29c1.34.66.92,1.49.58,2.16-.26.52-.42.88-.16,1.15l1.87-.9c-1-.63-.61-1.38-.3-2s.49-1-.1-1.32a5.33,5.33,0,0,0-2.72-.05,8.26,8.26,0,0,1-4.45-.3c-1.34-.66-.92-1.49-.59-2.16s.49-1-.1-1.32a5.34,5.34,0,0,0-2.72-.06,8.26,8.26,0,0,1-4.44-.3c-1.34-.66-.92-1.49-.59-2.16.26-.52.42-.88.15-1.15l-1.87.9m14.88,1.78a2.45,2.45,0,0,1-.34,1c-.32.63-.49,1,.1,1.32a5.36,5.36,0,0,0,2.73.06,18.15,18.15,0,0,1,2-.16l-4.51-2.2m-7.86-3.83a2.58,2.58,0,0,1-.34,1c-.32.63-.49,1,.1,1.32a5.34,5.34,0,0,0,2.72.06,19.26,19.26,0,0,1,2-.16l-4.51-2.2m-2.67,17.11a2.55,2.55,0,0,1,.33-1c.32-.63.49-1-.1-1.32a5.32,5.32,0,0,0-2.72-.06,19.69,19.69,0,0,1-2,.16l4.51,2.2M761-240.24a2.64,2.64,0,0,1,.33-1c.32-.63.49-1-.1-1.32a5.33,5.33,0,0,0-2.72-.06,18.47,18.47,0,0,1-2,.16l4.51,2.2M751.21-245l2,1a2.5,2.5,0,0,1,.34-1c.26-.52.42-.88.15-1.15L751.21-245m38,.13-1.95-.95a2.43,2.43,0,0,1-.34,1c-.25.51-.42.88-.15,1.15l2.44-1.18" transform="translate(-24 341.67)"/><polygon class="cls-2" points="734.27 72.08 765.52 87.32 758.15 90.88 734.19 79.19 710.18 90.78 734.14 102.47 726.78 106.02 702.82 94.33 696.25 97.5 720.22 109.19 712.85 112.74 688.89 101.05 681.6 97.5 688.96 93.94 695.53 90.78 702.89 87.22 726.9 75.64 733.28 72.56 734.27 72.08"/><polygon class="cls-1" points="664.64 201.19 680.63 201.19 680.63 194.08 664.64 194.08 664.64 182.02 680.63 182.02 680.63 174.91 657 174.91 657 194.08 657 201.19 657 212.28 680.95 212.28 680.95 205.28 664.64 205.28 664.64 201.19"/><path class="cls-1" d="M712.51-134.85a18.78,18.78,0,0,0,5.94,4,18.16,18.16,0,0,0,7.24,1.46,19.3,19.3,0,0,0,6.63-1.17,17.36,17.36,0,0,0,5.67-3.35l-16.05-23.35a9.37,9.37,0,0,1,3.76-.77,12.55,12.55,0,0,1,3.65.51,9.14,9.14,0,0,1,3.17,1.73l5.48-6.44a21.26,21.26,0,0,0-5.8-3.36,18.21,18.21,0,0,0-6.5-1.17,18.17,18.17,0,0,0-7.24,1.46,18.62,18.62,0,0,0-5.94,4,19.16,19.16,0,0,0-4,6,18.27,18.27,0,0,0-1.46,7.29,18.12,18.12,0,0,0,1.46,7.24A18.77,18.77,0,0,0,712.51-134.85Zm9.34-4a10.35,10.35,0,0,1-3.17-2.16,10.38,10.38,0,0,1-2.15-3.17,9.34,9.34,0,0,1-.8-3.83,9.47,9.47,0,0,1,.8-3.89,10.68,10.68,0,0,1,1-1.83l9.9,15.54a12.65,12.65,0,0,1-1.78.13A9.39,9.39,0,0,1,721.85-138.86Z" transform="translate(-24 341.67)"/><path class="cls-1" d="M768-144.17v-22.51h-7.59v22.77c0,.47,0,.91-.06,1.34l-12.92-18.79v-5.32h-7.59v22.51a19.2,19.2,0,0,0,1,6.58,12.47,12.47,0,0,0,2.86,4.62,11.58,11.58,0,0,0,4.41,2.75,16.86,16.86,0,0,0,5.66.91,17.7,17.7,0,0,0,5.83-.91,11.74,11.74,0,0,0,4.49-2.75,12.3,12.3,0,0,0,2.89-4.62A19.08,19.08,0,0,0,768-144.17Zm-18.79,6q-1.79-1.9-1.79-5.75v-7.35l9.24,14.51a6.76,6.76,0,0,1-2.61.48A6.34,6.34,0,0,1,749.26-138.16Z" transform="translate(-24 341.67)"/><path class="cls-1" d="M797-145.64a8.53,8.53,0,0,0-2.16-1.79,21.46,21.46,0,0,0-2.83-1.39,11.92,11.92,0,0,0,1.87-1.18,8.05,8.05,0,0,0,1.63-1.68,8.6,8.6,0,0,0,1.17-2.27,8.4,8.4,0,0,0,.46-2.83v-.32a8.37,8.37,0,0,0-.66-3.42,13.45,13.45,0,0,0-1.9-3,12.62,12.62,0,0,0-4.06-2.3,16.65,16.65,0,0,0-5.56-.85H771.3v37.37h14.09a21.19,21.19,0,0,0,5.49-.67,12.81,12.81,0,0,0,4.26-2,8.81,8.81,0,0,0,2.73-3.21,9.79,9.79,0,0,0,1-4.44v-.27a10.85,10.85,0,0,0-.46-3.34A7.09,7.09,0,0,0,797-145.64Zm-6.91-9.92a3.69,3.69,0,0,1-.38,1.63,4.35,4.35,0,0,1-1,1.33,4.61,4.61,0,0,1-1.41.88,4.78,4.78,0,0,1-.56.18v-8.2a5.18,5.18,0,0,1,2.08,1.26A4,4,0,0,1,790.12-155.56ZM779-160h2.36v8.61H779Zm-.37,15h2.73v8.55h-2.73Zm12.46,4.41a3.5,3.5,0,0,1-1.5,3.19,6.37,6.37,0,0,1-2.81.9v-8.42a5.72,5.72,0,0,1,2.89,1,3.66,3.66,0,0,1,1.41,3Z" transform="translate(-24 341.67)"/><polygon class="cls-1" points="784.69 205.28 784.69 201.19 800.68 201.19 800.68 194.08 784.69 194.08 784.69 182.02 800.68 182.02 800.68 174.91 777.04 174.91 777.04 194.08 777.04 201.19 777.04 212.28 801 212.28 801 205.28 784.69 205.28"/><path class="cls-1" d="M688.57-124.58a4,4,0,0,0-2.68-1.08H681v11.6h2.56v-3.75h2.33a3.85,3.85,0,0,0,2.71-1.12,3.68,3.68,0,0,0,1.2-2.81A3.61,3.61,0,0,0,688.57-124.58Zm-1.81,4.08a1.62,1.62,0,0,1-1,.37h-2.18v-3.2h2.18a1.65,1.65,0,0,1,1,.38,1.45,1.45,0,0,1,.48,1.21A1.48,1.48,0,0,1,686.76-120.5Z" transform="translate(-24 341.67)"/><path class="cls-1" d="M702.53-121.84a3.55,3.55,0,0,0-1.17-2.71,3.83,3.83,0,0,0-2.78-1.12h-4.86v11.6h2.55v-3.86H698l2.41,3.86h2.9l-2.83-4.48A3.52,3.52,0,0,0,702.53-121.84Zm-4.23,1.65h-2v-3.15h2.25A1.46,1.46,0,0,1,700-121.8,1.54,1.54,0,0,1,698.3-120.19Z" transform="translate(-24 341.67)"/><path class="cls-1" d="M712.53-125.85a6.12,6.12,0,0,0-4.39,1.75,5.71,5.71,0,0,0-1.8,4.26,5.74,5.74,0,0,0,1.8,4.28,6.17,6.17,0,0,0,4.39,1.73,6.12,6.12,0,0,0,4.39-1.73,5.75,5.75,0,0,0,1.8-4.28,5.67,5.67,0,0,0-1.81-4.26A6.06,6.06,0,0,0,712.53-125.85Zm2.56,8.62a3.43,3.43,0,0,1-2.56,1.07,3.52,3.52,0,0,1-2.58-1,3.6,3.6,0,0,1-1-2.63,3.58,3.58,0,0,1,1-2.6,3.48,3.48,0,0,1,2.58-1.08,3.48,3.48,0,0,1,2.58,1.08,3.58,3.58,0,0,1,1,2.6A3.56,3.56,0,0,1,715.09-117.23Z" transform="translate(-24 341.67)"/><path class="cls-1" d="M727.34-125.66h-4.39v11.6h4.41a6.15,6.15,0,0,0,4.54-1.56,5.66,5.66,0,0,0,1.6-4.21,5.63,5.63,0,0,0-1.61-4.21A6.09,6.09,0,0,0,727.34-125.66Zm-.15,9.27h-1.68v-6.94h1.66a3.75,3.75,0,0,1,2.9.93,3.67,3.67,0,0,1,.85,2.56C730.92-117.71,729.92-116.39,727.19-116.39Z" transform="translate(-24 341.67)"/><path class="cls-1" d="M744.93-119c0,1.88-.78,2.81-2.36,2.81s-2.38-.93-2.38-2.81v-6.64h-2.56v6.91a4.64,4.64,0,0,0,1.4,3.63,5.12,5.12,0,0,0,3.54,1.25,5,5,0,0,0,3.53-1.27,4.63,4.63,0,0,0,1.4-3.61v-6.91h-2.56Z" transform="translate(-24 341.67)"/><path class="cls-1" d="M757.82-116.21a3.65,3.65,0,0,1-2.63-1,3.53,3.53,0,0,1-1-2.61,3.49,3.49,0,0,1,1.07-2.61,3.59,3.59,0,0,1,2.61-1,3.76,3.76,0,0,1,2.95,1.31l1.75-1.48a6.2,6.2,0,0,0-4.69-2.16,6.18,6.18,0,0,0-4.43,1.71,5.62,5.62,0,0,0-1.81,4.28,5.62,5.62,0,0,0,1.81,4.28,6.23,6.23,0,0,0,4.43,1.7,6.14,6.14,0,0,0,4.71-2.18l-1.75-1.48A3.79,3.79,0,0,1,757.82-116.21Z" transform="translate(-24 341.67)"/><polygon class="cls-1" points="741.81 218.33 744.96 218.33 744.96 227.6 747.52 227.6 747.52 218.33 750.62 218.33 750.62 216 741.81 216 741.81 218.33"/><rect class="cls-1" x="754.34" y="216" width="2.56" height="11.6"/><path class="cls-1" d="M791.36-125.85A6.12,6.12,0,0,0,787-124.1a5.71,5.71,0,0,0-1.8,4.26,5.74,5.74,0,0,0,1.8,4.28,6.17,6.17,0,0,0,4.39,1.73,6.12,6.12,0,0,0,4.39-1.73,5.74,5.74,0,0,0,1.8-4.28,5.66,5.66,0,0,0-1.81-4.26A6.06,6.06,0,0,0,791.36-125.85Zm2.56,8.62a3.43,3.43,0,0,1-2.56,1.07,3.52,3.52,0,0,1-2.58-1,3.6,3.6,0,0,1-1-2.63,3.58,3.58,0,0,1,1-2.6,3.49,3.49,0,0,1,2.58-1.08,3.48,3.48,0,0,1,2.58,1.08,3.58,3.58,0,0,1,1,2.6A3.57,3.57,0,0,1,793.92-117.23Z" transform="translate(-24 341.67)"/><polygon class="cls-1" points="785.61 223.21 780.05 216 777.77 216 777.77 227.6 780.25 227.6 780.25 220.2 785.99 227.6 788.09 227.6 788.09 216 785.61 216 785.61 223.21"/><path class="cls-1" d="M822-120.87c-.28-.12-.62-.23-1-.37l-.83-.28c-.15-.07-.33-.15-.52-.25a.84.84,0,0,1-.45-.83c0-.55.55-.95,1.4-.95a2.48,2.48,0,0,1,2.08.9l1.71-1.3a4.45,4.45,0,0,0-3.86-1.9,4.25,4.25,0,0,0-2.75.9,2.85,2.85,0,0,0-1.12,2.38c0,1.75,1,2.7,2.81,3.36.33.13,1,.35,1.28.47a3.93,3.93,0,0,1,1,.43,1.11,1.11,0,0,1,.63,1c0,.62-.55,1.15-1.73,1.15a3.16,3.16,0,0,1-2.91-1.53l-1.86,1.28a5,5,0,0,0,4.76,2.56c2.84,0,4.31-1.4,4.31-3.55C825-119.09,824.15-120.07,822-120.87Z" transform="translate(-24 341.67)"/><path class="cls-1" d="M484.38-36.84a3.68,3.68,0,0,1,2.64-1,3.64,3.64,0,0,1,2.63,1,3.4,3.4,0,0,1,1.09,2.56,3.45,3.45,0,0,1-1.08,2.57,3.68,3.68,0,0,1-2.64,1,3.71,3.71,0,0,1-2.64-1,3.45,3.45,0,0,1-1.08-2.57A3.43,3.43,0,0,1,484.38-36.84Zm1.09,4.14a2.11,2.11,0,0,0,1.55.63,2.06,2.06,0,0,0,1.54-.64,2.14,2.14,0,0,0,.64-1.57,2.15,2.15,0,0,0-.63-1.56,2.09,2.09,0,0,0-1.55-.65,2.09,2.09,0,0,0-1.55.65,2.15,2.15,0,0,0-.63,1.56A2.16,2.16,0,0,0,485.47-32.7Z" transform="translate(-24 341.67)"/><path class="cls-1" d="M493.38-30.81v-7h1.37l3.34,4.33v-4.33h1.49v7h-1.26l-3.45-4.45v4.45Z" transform="translate(-24 341.67)"/><path class="cls-1" d="M508-30.81v-7h2.77a2,2,0,0,1,1.41.51,1.59,1.59,0,0,1,.58,1.27,1.4,1.4,0,0,1-.89,1.4,1.65,1.65,0,0,1,1.4,1.73,2,2,0,0,1-.61,1.48,2.07,2.07,0,0,1-1.51.58ZM509.49-35h1a.72.72,0,0,0,.75-.74.71.71,0,0,0-.74-.72h-1Zm0,2.86h1.33a.85.85,0,0,0,.9-.85.84.84,0,0,0-.91-.82h-1.32Z" transform="translate(-24 341.67)"/><path class="cls-1" d="M515.9-30.81v-7h1.54v5.57h2.72v1.4Z" transform="translate(-24 341.67)"/><path class="cls-1" d="M522.28-30.81l2.88-7h1.37l2.88,7h-1.64L527.29-32h-2.91l-.47,1.17Zm2.55-2.4h2l-1-2.53Z" transform="translate(-24 341.67)"/><path class="cls-1" d="M537.66-36.59l-1,.89a2.26,2.26,0,0,0-1.77-.79,2.16,2.16,0,0,0-1.57.63,2.09,2.09,0,0,0-.64,1.57,2.12,2.12,0,0,0,.63,1.57,2.19,2.19,0,0,0,1.58.62,2.27,2.27,0,0,0,1.78-.8l1,.89a3.69,3.69,0,0,1-2.83,1.31,3.75,3.75,0,0,1-2.66-1,3.38,3.38,0,0,1-1.09-2.57,3.38,3.38,0,0,1,1.09-2.57,3.71,3.71,0,0,1,2.66-1A3.73,3.73,0,0,1,537.66-36.59Z" transform="translate(-24 341.67)"/><path class="cls-1" d="M540.11-30.81v-7h1.54v3.11l2.69-3.11h1.83l-2.67,3.09,2.75,3.88h-1.81l-2-2.79-.8.89v1.9Z" transform="translate(-24 341.67)"/><path class="cls-1" d="M554-30.81v-7h2.77a2,2,0,0,1,1.41.51,1.59,1.59,0,0,1,.58,1.27,1.4,1.4,0,0,1-.89,1.4,1.65,1.65,0,0,1,1.4,1.73,2,2,0,0,1-.61,1.48,2.07,2.07,0,0,1-1.51.58ZM555.53-35h1a.72.72,0,0,0,.75-.74.71.71,0,0,0-.74-.72h-1Zm0,2.86h1.33a.85.85,0,0,0,.9-.85.84.84,0,0,0-.91-.82h-1.32Z" transform="translate(-24 341.67)"/><path class="cls-1" d="M561.17-30.81l2.88-7h1.37l2.88,7h-1.64L566.19-32h-2.91l-.47,1.17Zm2.55-2.4h2l-1-2.53Z" transform="translate(-24 341.67)"/><path class="cls-1" d="M576.55-36.59l-1,.89a2.26,2.26,0,0,0-1.77-.79,2.16,2.16,0,0,0-1.57.63,2.09,2.09,0,0,0-.64,1.57,2.12,2.12,0,0,0,.63,1.57,2.2,2.2,0,0,0,1.58.62,2.27,2.27,0,0,0,1.78-.8l1,.89a3.69,3.69,0,0,1-2.83,1.31,3.75,3.75,0,0,1-2.66-1A3.37,3.37,0,0,1,570-34.29a3.37,3.37,0,0,1,1.09-2.57,3.71,3.71,0,0,1,2.66-1A3.72,3.72,0,0,1,576.55-36.59Z" transform="translate(-24 341.67)"/><path class="cls-1" d="M579-30.81v-7h1.54v3.11l2.69-3.11h1.83l-2.67,3.09,2.75,3.88h-1.81l-2-2.79-.8.89v1.9Z" transform="translate(-24 341.67)"/><path class="cls-1" d="M593.18-36.76l-1,.91a2.24,2.24,0,0,0-1.66-.64,2.16,2.16,0,0,0-1.57.63,2.09,2.09,0,0,0-.64,1.57,2.12,2.12,0,0,0,.63,1.57,2.19,2.19,0,0,0,1.58.62,2.18,2.18,0,0,0,1.52-.54v-.94h-1.83v-1.36h3.27v2.82a3.69,3.69,0,0,1-3,1.42,3.75,3.75,0,0,1-2.66-1,3.38,3.38,0,0,1-1.09-2.57,3.38,3.38,0,0,1,1.09-2.57,3.72,3.72,0,0,1,2.66-1A3.62,3.62,0,0,1,593.18-36.76Z" transform="translate(-24 341.67)"/><path class="cls-1" d="M596.26-30.81v-7h2.92a2.3,2.3,0,0,1,1.67.67,2.13,2.13,0,0,1,.7,1.63,2.11,2.11,0,0,1-1.24,2l1.7,2.69h-1.74l-1.45-2.32h-1v2.32Zm1.53-3.68H599a.93.93,0,0,0,1-1,.88.88,0,0,0-.87-.92h-1.35Z" transform="translate(-24 341.67)"/><path class="cls-1" d="M605-36.84a3.68,3.68,0,0,1,2.64-1,3.64,3.64,0,0,1,2.63,1,3.4,3.4,0,0,1,1.09,2.56,3.45,3.45,0,0,1-1.08,2.57,3.68,3.68,0,0,1-2.64,1,3.71,3.71,0,0,1-2.64-1,3.44,3.44,0,0,1-1.08-2.57A3.42,3.42,0,0,1,605-36.84Zm1.09,4.14a2.11,2.11,0,0,0,1.55.63,2.06,2.06,0,0,0,1.54-.64,2.14,2.14,0,0,0,.64-1.57,2.15,2.15,0,0,0-.63-1.56,2.09,2.09,0,0,0-1.55-.65,2.09,2.09,0,0,0-1.55.65,2.15,2.15,0,0,0-.63,1.56A2.16,2.16,0,0,0,606.12-32.7Z" transform="translate(-24 341.67)"/><path class="cls-1" d="M614-37.78h1.54v4c0,1.13.48,1.69,1.43,1.69s1.42-.56,1.42-1.69v-4h1.54v4.15a2.78,2.78,0,0,1-.84,2.17,3,3,0,0,1-2.12.76,3.07,3.07,0,0,1-2.13-.75,2.79,2.79,0,0,1-.84-2.18Z" transform="translate(-24 341.67)"/><path class="cls-1" d="M622.84-30.81v-7h1.37l3.34,4.33v-4.33H629v7h-1.26l-3.45-4.45v4.45Z" transform="translate(-24 341.67)"/><path class="cls-1" d="M632.06-30.81v-7h2.64a3.65,3.65,0,0,1,2.73,1,3.38,3.38,0,0,1,1,2.53,3.4,3.4,0,0,1-1,2.53,3.69,3.69,0,0,1-2.73.94Zm1.54-1.4h1c1.64,0,2.24-.79,2.24-2.07a2.2,2.2,0,0,0-.51-1.54,2.25,2.25,0,0,0-1.74-.56h-1Z" transform="translate(-24 341.67)"/><path class="cls-1" d="M682.65-36.84a3.68,3.68,0,0,1,2.64-1,3.64,3.64,0,0,1,2.63,1A3.4,3.4,0,0,1,689-34.28a3.45,3.45,0,0,1-1.08,2.57,3.67,3.67,0,0,1-2.64,1,3.71,3.71,0,0,1-2.64-1,3.45,3.45,0,0,1-1.08-2.57A3.43,3.43,0,0,1,682.65-36.84Zm1.09,4.14a2.11,2.11,0,0,0,1.55.63,2.06,2.06,0,0,0,1.54-.64,2.14,2.14,0,0,0,.64-1.57,2.15,2.15,0,0,0-.63-1.56,2.09,2.09,0,0,0-1.55-.65,2.09,2.09,0,0,0-1.55.65,2.15,2.15,0,0,0-.63,1.56A2.16,2.16,0,0,0,683.74-32.7Z" transform="translate(-24 341.67)"/><path class="cls-1" d="M691.65-30.81v-7H693l3.34,4.33v-4.33h1.49v7h-1.26l-3.45-4.45v4.45Z" transform="translate(-24 341.67)"/><path class="cls-1" d="M706.25-30.81v-7h2.92a2.3,2.3,0,0,1,1.67.67,2.13,2.13,0,0,1,.7,1.63,2.11,2.11,0,0,1-1.24,2l1.7,2.69h-1.74l-1.45-2.32h-1v2.32Zm1.53-3.68H709a.93.93,0,0,0,1-1,.88.88,0,0,0-.87-.92h-1.35Z" transform="translate(-24 341.67)"/><path class="cls-1" d="M714.39-30.81v-7h4.76v1.4h-3.22v1.31h3v1.37h-3v1.49h3.29v1.4Z" transform="translate(-24 341.67)"/><path class="cls-1" d="M722-30.81v-7h2.64a3.66,3.66,0,0,1,2.73,1,3.38,3.38,0,0,1,1,2.53,3.4,3.4,0,0,1-1,2.53,3.69,3.69,0,0,1-2.73.94Zm1.54-1.4h1c1.64,0,2.24-.79,2.24-2.07a2.2,2.2,0,0,0-.51-1.54,2.25,2.25,0,0,0-1.74-.56h-1Z" transform="translate(-24 341.67)"/><path class="cls-1" d="M736.46-30.81v-7h2.77a2,2,0,0,1,1.41.51,1.59,1.59,0,0,1,.58,1.27,1.4,1.4,0,0,1-.89,1.4,1.65,1.65,0,0,1,1.4,1.73,2,2,0,0,1-.61,1.48,2.07,2.07,0,0,1-1.51.58ZM738-35h1a.72.72,0,0,0,.75-.74.71.71,0,0,0-.74-.72h-1Zm0,2.86h1.33a.86.86,0,0,0,.9-.85.84.84,0,0,0-.91-.82H738Z" transform="translate(-24 341.67)"/><path class="cls-1" d="M743.6-30.81l2.88-7h1.37l2.88,7h-1.64L748.62-32h-2.91l-.47,1.17Zm2.55-2.4h2l-1-2.53Z" transform="translate(-24 341.67)"/><path class="cls-1" d="M759-36.59l-1,.89a2.26,2.26,0,0,0-1.77-.79,2.16,2.16,0,0,0-1.57.63,2.09,2.09,0,0,0-.64,1.57,2.12,2.12,0,0,0,.63,1.57,2.2,2.2,0,0,0,1.58.62,2.28,2.28,0,0,0,1.78-.8l1,.89a3.69,3.69,0,0,1-2.83,1.31,3.75,3.75,0,0,1-2.66-1,3.38,3.38,0,0,1-1.09-2.57,3.38,3.38,0,0,1,1.09-2.57,3.71,3.71,0,0,1,2.66-1A3.73,3.73,0,0,1,759-36.59Z" transform="translate(-24 341.67)"/><path class="cls-1" d="M761.44-30.81v-7H763v3.11l2.69-3.11h1.83l-2.67,3.09,2.75,3.88h-1.81l-2-2.79-.8.89v1.9Z" transform="translate(-24 341.67)"/><path class="cls-1" d="M775.61-36.76l-1,.91a2.24,2.24,0,0,0-1.66-.64,2.16,2.16,0,0,0-1.57.63,2.1,2.1,0,0,0-.64,1.57,2.12,2.12,0,0,0,.63,1.57,2.19,2.19,0,0,0,1.58.62,2.19,2.19,0,0,0,1.52-.54v-.94h-1.83v-1.36h3.27v2.82a3.69,3.69,0,0,1-3,1.42,3.75,3.75,0,0,1-2.66-1,3.38,3.38,0,0,1-1.09-2.57,3.38,3.38,0,0,1,1.09-2.57,3.71,3.71,0,0,1,2.66-1A3.62,3.62,0,0,1,775.61-36.76Z" transform="translate(-24 341.67)"/><path class="cls-1" d="M778.69-30.81v-7h2.92a2.31,2.31,0,0,1,1.67.67,2.14,2.14,0,0,1,.7,1.63,2.11,2.11,0,0,1-1.24,2l1.7,2.69H782.7l-1.45-2.32h-1v2.32Zm1.53-3.68h1.22a.93.93,0,0,0,1-1,.88.88,0,0,0-.87-.92h-1.35Z" transform="translate(-24 341.67)"/><path class="cls-1" d="M787.46-36.84a3.68,3.68,0,0,1,2.64-1,3.63,3.63,0,0,1,2.63,1,3.4,3.4,0,0,1,1.09,2.56,3.45,3.45,0,0,1-1.08,2.57,3.68,3.68,0,0,1-2.64,1,3.71,3.71,0,0,1-2.64-1,3.45,3.45,0,0,1-1.08-2.57A3.43,3.43,0,0,1,787.46-36.84Zm1.09,4.14a2.11,2.11,0,0,0,1.55.63,2.06,2.06,0,0,0,1.54-.64,2.14,2.14,0,0,0,.64-1.57,2.15,2.15,0,0,0-.63-1.56,2.09,2.09,0,0,0-1.55-.65,2.09,2.09,0,0,0-1.55.65,2.15,2.15,0,0,0-.63,1.56A2.16,2.16,0,0,0,788.55-32.7Z" transform="translate(-24 341.67)"/><path class="cls-1" d="M796.38-37.78h1.54v4c0,1.13.48,1.69,1.43,1.69s1.42-.56,1.42-1.69v-4h1.54v4.15a2.78,2.78,0,0,1-.84,2.17,3,3,0,0,1-2.12.76,3.08,3.08,0,0,1-2.13-.75,2.79,2.79,0,0,1-.84-2.18Z" transform="translate(-24 341.67)"/><path class="cls-1" d="M805.27-30.81v-7h1.37L810-33.45v-4.33h1.49v7h-1.26l-3.45-4.45v4.45Z" transform="translate(-24 341.67)"/><path class="cls-1" d="M814.49-30.81v-7h2.64a3.66,3.66,0,0,1,2.73,1,3.38,3.38,0,0,1,1,2.53,3.4,3.4,0,0,1-1,2.53,3.69,3.69,0,0,1-2.73.94Zm1.54-1.4h1c1.64,0,2.24-.79,2.24-2.07a2.2,2.2,0,0,0-.51-1.54,2.25,2.25,0,0,0-1.74-.56h-1Z" transform="translate(-24 341.67)"/></svg>