<?xml version="1.0" encoding="UTF-8" standalone="no"?>
<!DOCTYPE svg PUBLIC "-//W3C//DTD SVG 1.1//EN" "http://www.w3.org/Graphics/SVG/1.1/DTD/svg11.dtd">
<svg version="1.1" xmlns="http://www.w3.org/2000/svg" xmlns:xlink="http://www.w3.org/1999/xlink" preserveAspectRatio="xMidYMid meet" viewBox="1.4193614959716845 56.718050761656286 160.32063850402832 55.06992916325942" width="156.32" height="51.06"><defs><path d="M2.42 74.15L36.59 90.82L36.59 108.79L2.42 92.74L2.42 92.74L2.42 74.15Z" id="cbEHyUhyQ"></path><path d="M36.64 90.82L70.69 74.38L70.69 93.43L36.64 108.79L36.64 108.79L36.64 90.82Z" id="c6D5ZsAJK"></path><path d="M70.69 74.38L36.64 90.82L2.46 74.15L36.52 57.72L36.52 57.72L70.69 74.38Z" id="b2p0BtuVXP"></path><path d="M56.48 71.86L52.98 73.54L41.62 68L30.23 73.49L41.6 79.04L38.11 80.72L26.74 75.18L23.63 76.68L34.99 82.22L31.5 83.91L20.14 78.36L16.68 76.68L20.17 75L23.28 73.49L26.78 71.81L38.16 66.31L41.19 64.85L41.66 64.63L41.66 64.63L56.48 71.86Z" id="b2MtS2pkW5"></path><path d="M102.87 68.83L103.41 68.93L103.94 69.05L104.46 69.2L104.98 69.38L105.22 69.48L105.46 69.58L105.7 69.68L105.93 69.79L106.17 69.91L106.4 70.03L106.62 70.16L106.85 70.29L107.07 70.42L107.29 70.56L107.51 70.7L107.72 70.85L107.93 71.01L108.14 71.16L108.34 71.33L105.16 75.06L105.05 74.97L104.94 74.88L104.83 74.8L104.71 74.72L104.59 74.64L104.47 74.57L104.35 74.5L104.23 74.43L104.1 74.37L103.98 74.31L103.85 74.25L103.72 74.2L103.59 74.15L103.46 74.1L103.32 74.06L103.19 74.02L103.05 73.98L102.91 73.95L102.77 73.92L102.63 73.89L102.49 73.86L102.35 73.84L102.21 73.82L102.06 73.8L101.92 73.79L101.78 73.78L101.64 73.77L101.49 73.76L101.35 73.76L101.21 73.76L101.06 73.76L100.91 73.77L100.76 73.78L100.61 73.79L100.46 73.81L100.32 73.83L100.17 73.86L100.02 73.89L99.88 73.92L99.73 73.96L99.59 74L99.45 74.05L99.31 74.1L99.17 74.15L99.03 74.21L108.34 87.71L108.15 87.88L107.95 88.04L107.75 88.2L107.54 88.36L107.33 88.51L107.12 88.65L106.9 88.79L106.68 88.92L106.46 89.04L106.23 89.16L106 89.28L105.77 89.39L105.53 89.49L105.3 89.59L105.06 89.68L104.81 89.77L104.56 89.85L104.31 89.92L104.06 89.99L103.8 90.06L103.55 90.11L103.29 90.16L103.04 90.21L102.78 90.25L102.52 90.28L102.26 90.31L102 90.33L101.74 90.35L101.48 90.35L101.21 90.36L100.93 90.36L100.64 90.35L100.35 90.33L100.07 90.3L99.78 90.27L99.5 90.23L99.21 90.18L98.93 90.12L98.65 90.06L98.38 89.98L98.1 89.9L97.83 89.82L97.56 89.72L97.29 89.62L97.02 89.51L96.51 89.28L96.01 89.02L95.53 88.74L95.07 88.44L94.62 88.11L94.19 87.76L93.78 87.39L93.39 87L93.02 86.59L92.67 86.16L92.34 85.71L92.04 85.25L91.76 84.77L91.5 84.27L91.27 83.76L91.06 83.22L90.88 82.67L90.73 82.11L90.61 81.55L90.51 80.98L90.45 80.41L90.42 79.84L90.42 79.26L90.45 78.69L90.51 78.12L90.61 77.56L90.73 76.99L90.88 76.44L91.06 75.88L91.27 75.34L91.38 75.08L91.5 74.83L91.62 74.58L91.75 74.33L91.89 74.09L92.04 73.85L92.18 73.61L92.34 73.38L92.5 73.15L92.67 72.92L92.84 72.7L93.02 72.49L93.2 72.28L93.39 72.07L93.59 71.87L93.78 71.67L93.99 71.48L94.2 71.3L94.41 71.12L94.63 70.95L94.85 70.78L95.08 70.62L95.31 70.46L95.54 70.31L95.78 70.17L96.02 70.03L96.27 69.9L96.52 69.78L96.77 69.66L97.03 69.55L97.54 69.35L98.05 69.18L98.58 69.03L99.11 68.91L99.64 68.82L100.18 68.75L100.72 68.71L101.26 68.7L101.8 68.72L102.34 68.76L102.34 68.76L102.87 68.83ZM149.29 79.81L158.55 79.81L158.55 83.93L149.29 83.93L149.29 86.3L158.74 86.3L158.74 90.35L144.87 90.35L144.87 68.7L158.55 68.7L158.55 72.82L149.29 72.82L149.29 72.82L149.29 79.81ZM79.75 79.81L89.01 79.81L89.01 83.93L79.75 83.93L79.75 86.3L89.19 86.3L89.19 90.35L75.32 90.35L75.32 68.7L89.01 68.7L89.01 72.82L79.75 72.82L79.75 72.82L79.75 79.81ZM125.53 82.09L125.53 82.31L125.52 82.52L125.5 82.74L125.49 82.95L125.46 83.17L125.44 83.38L125.41 83.6L125.37 83.81L125.33 84.02L125.29 84.23L125.24 84.44L125.19 84.65L125.13 84.86L125.07 85.07L125.01 85.28L124.94 85.48L124.88 85.65L124.82 85.81L124.75 85.98L124.68 86.14L124.6 86.3L124.52 86.45L124.44 86.61L124.35 86.76L124.26 86.91L124.16 87.06L124.06 87.21L123.96 87.35L123.85 87.49L123.74 87.63L123.63 87.77L123.52 87.9L123.4 88.03L123.27 88.16L123.15 88.28L123.02 88.39L122.89 88.5L122.76 88.61L122.63 88.72L122.49 88.82L122.35 88.92L122.21 89.01L122.06 89.1L121.92 89.19L121.77 89.27L121.62 89.35L121.46 89.43L121.31 89.5L121.15 89.57L120.99 89.63L120.83 89.69L120.67 89.75L120.49 89.81L120.31 89.86L120.12 89.92L119.94 89.97L119.75 90.01L119.57 90.05L119.38 90.09L119.19 90.12L119.01 90.16L118.82 90.18L118.63 90.21L118.44 90.23L118.25 90.25L118.06 90.26L117.87 90.27L117.68 90.28L117.49 90.28L117.29 90.28L117.11 90.28L116.92 90.27L116.74 90.27L116.55 90.26L116.37 90.24L116.18 90.23L116 90.21L115.81 90.18L115.63 90.15L115.45 90.12L115.26 90.09L115.08 90.05L114.9 90.01L114.72 89.96L114.54 89.92L114.36 89.86L114.19 89.81L114.01 89.75L113.85 89.69L113.69 89.63L113.54 89.57L113.38 89.5L113.23 89.43L113.08 89.35L112.93 89.27L112.79 89.19L112.64 89.1L112.5 89.01L112.36 88.91L112.22 88.82L112.09 88.71L111.96 88.61L111.83 88.5L111.7 88.39L111.58 88.28L111.45 88.16L111.33 88.03L111.21 87.9L111.1 87.76L110.98 87.63L110.88 87.49L110.77 87.35L110.67 87.2L110.57 87.05L110.47 86.91L110.38 86.75L110.3 86.6L110.21 86.44L110.13 86.29L110.06 86.13L109.98 85.97L109.92 85.8L109.85 85.64L109.79 85.47L109.73 85.26L109.66 85.06L109.6 84.85L109.55 84.64L109.5 84.43L109.45 84.22L109.41 84.01L109.37 83.8L109.34 83.59L109.31 83.38L109.28 83.16L109.26 82.95L109.24 82.73L109.23 82.52L109.22 82.3L109.21 82.09L109.21 81.87L109.21 81.66L109.21 68.62L113.61 68.62L113.61 71.7L121.09 82.56L121.1 82.52L121.11 82.48L121.11 82.44L121.12 82.39L121.12 82.35L121.12 82.31L121.13 82.27L121.13 82.22L121.13 82.18L121.13 82.14L121.13 82.1L121.13 82.05L121.13 82.01L121.13 81.96L121.13 81.92L121.14 81.88L121.14 81.83L121.14 81.78L121.14 68.62L125.53 68.62L125.53 81.66L125.53 81.87L125.53 81.87L125.53 82.09ZM136.51 68.66L136.74 68.68L136.97 68.71L137.2 68.74L137.43 68.78L137.66 68.82L137.89 68.87L138.12 68.92L138.35 68.98L138.57 69.05L138.79 69.12L138.98 69.19L139.16 69.26L139.34 69.33L139.51 69.41L139.69 69.5L139.86 69.58L140.03 69.68L140.2 69.78L140.36 69.88L140.53 69.98L140.69 70.1L140.84 70.21L141 70.33L141.15 70.45L141.24 70.57L141.33 70.68L141.42 70.8L141.51 70.92L141.59 71.04L141.67 71.16L141.75 71.29L141.83 71.41L141.91 71.54L141.98 71.67L142.05 71.8L142.12 71.93L142.18 72.06L142.25 72.19L142.3 72.33L142.35 72.46L142.4 72.6L142.44 72.74L142.48 72.88L142.51 73.02L142.54 73.16L142.57 73.31L142.59 73.45L142.61 73.59L142.62 73.74L142.63 73.88L142.63 74.03L142.63 74.17L142.63 74.36L142.63 74.48L142.63 74.6L142.62 74.72L142.61 74.83L142.6 74.95L142.59 75.07L142.57 75.19L142.55 75.31L142.53 75.42L142.5 75.54L142.47 75.66L142.44 75.77L142.41 75.88L142.37 76L142.33 76.1L142.3 76.2L142.26 76.3L142.21 76.39L142.17 76.49L142.13 76.59L142.08 76.68L142.03 76.77L141.98 76.87L141.92 76.96L141.87 77.05L141.81 77.14L141.75 77.23L141.69 77.31L141.63 77.39L141.57 77.47L141.51 77.54L141.45 77.62L141.39 77.69L141.32 77.76L141.25 77.83L141.19 77.9L141.12 77.97L141.04 78.04L140.97 78.1L140.9 78.16L140.82 78.23L140.75 78.29L140.67 78.34L140.6 78.4L140.52 78.45L140.45 78.5L140.37 78.55L140.3 78.6L140.22 78.65L140.14 78.7L140.06 78.75L139.99 78.8L139.91 78.84L139.83 78.88L139.74 78.93L139.66 78.97L139.78 79.02L139.9 79.07L140.02 79.12L140.14 79.18L140.26 79.23L140.38 79.29L140.5 79.34L140.61 79.4L140.73 79.46L140.85 79.52L140.96 79.58L141.08 79.65L141.19 79.71L141.3 79.77L141.4 79.83L141.5 79.9L141.6 79.96L141.69 80.03L141.79 80.1L141.88 80.17L141.97 80.24L142.06 80.32L142.15 80.39L142.23 80.47L142.32 80.56L142.4 80.64L142.48 80.72L142.55 80.81L142.63 80.9L142.7 81L142.77 81.09L142.83 81.19L142.9 81.28L142.96 81.38L143.02 81.49L143.07 81.59L143.12 81.69L143.17 81.8L143.22 81.91L143.26 82.02L143.3 82.13L143.34 82.24L143.37 82.37L143.41 82.51L143.44 82.64L143.47 82.78L143.5 82.92L143.52 83.06L143.54 83.19L143.56 83.33L143.58 83.47L143.59 83.61L143.6 83.75L143.6 83.89L143.6 84.03L143.6 84.17L143.6 84.33L143.6 84.52L143.59 84.71L143.58 84.9L143.56 85.09L143.54 85.28L143.5 85.46L143.46 85.65L143.42 85.83L143.37 86.02L143.31 86.2L143.25 86.38L143.18 86.55L143.1 86.73L143.02 86.9L142.94 87.06L142.85 87.21L142.76 87.35L142.66 87.5L142.56 87.64L142.45 87.78L142.34 87.91L142.23 88.04L142.11 88.17L141.98 88.29L141.85 88.41L141.72 88.52L141.58 88.63L141.44 88.73L141.28 88.84L141.12 88.95L140.95 89.06L140.78 89.15L140.61 89.25L140.44 89.34L140.26 89.42L140.08 89.51L139.9 89.58L139.72 89.65L139.54 89.72L139.35 89.78L139.16 89.84L138.97 89.89L138.75 89.94L138.53 90L138.3 90.04L138.08 90.09L137.85 90.12L137.62 90.16L137.4 90.19L137.17 90.21L136.94 90.23L136.71 90.25L136.48 90.26L136.25 90.27L136.02 90.28L135.79 90.28L127.63 90.28L127.63 68.63L135.57 68.63L135.81 68.63L136.04 68.63L136.27 68.64L136.27 68.64L136.51 68.66ZM113.87 83.75L114.19 84.52L114.65 85.14L115.25 85.64L115.93 85.99L116.67 86.19L117.45 86.24L117.84 86.23L118.22 86.18L118.6 86.09L118.96 85.96L113.61 77.56L113.61 81.8L113.67 82.85L113.67 82.85L113.87 83.75ZM133.46 86.16L133.46 81.21L131.88 81.21L131.88 86.16L131.88 86.16L133.46 86.16ZM137.44 85.97L137.84 85.82L138.23 85.61L138.63 85.25L138.91 84.81L139.07 84.3L139.1 83.77L139.09 83.58L139.05 83.08L138.89 82.61L138.63 82.19L138.27 81.84L137.89 81.61L137.47 81.43L137.04 81.32L136.6 81.26L136.6 86.14L137.03 86.08L137.03 86.08L137.44 85.97ZM96.04 76.98L95.91 77.26L95.71 77.8L95.56 78.36L95.48 78.93L95.45 79.51L95.48 80.08L95.56 80.65L95.71 81.2L95.91 81.73L96.45 82.71L97.16 83.57L98.02 84.27L99 84.81L98.99 84.87L99.52 85.05L100.07 85.19L100.63 85.26L101.19 85.28L101.45 85.27L101.71 85.26L101.97 85.23L102.22 85.2L96.49 76.2L96.33 76.45L96.18 76.72L96.18 76.72L96.04 76.98ZM133.46 77.51L133.46 72.52L132.09 72.52L132.09 77.51L132.09 77.51L133.46 77.51ZM136.76 77.35L136.84 77.32L136.92 77.29L137.14 77.19L137.35 77.07L137.55 76.93L137.74 76.78L137.91 76.61L138.07 76.42L138.2 76.22L138.32 76.01L138.41 75.78L138.48 75.55L138.52 75.31L138.53 75.07L138.49 74.59L138.34 74.14L138.11 73.73L137.8 73.37L137.54 73.14L137.24 72.94L136.93 72.77L136.6 72.64L136.6 77.39L136.68 77.37L136.68 77.37L136.76 77.35Z" id="cBgVWRilZ"></path><path d="M117.53 98.27L117.13 97.28L114.69 97.28L114.3 98.27L112.92 98.27L115.33 92.4L116.49 92.4L118.91 98.27L117.53 98.27ZM96.35 93.58L96.35 94.68L98.88 94.68L98.88 95.83L96.35 95.83L96.35 97.08L99.12 97.08L99.12 98.26L95.06 98.26L95.06 92.4L99.06 92.4L99.06 93.58L96.35 93.58ZM91.6 93.58L91.6 98.26L90.31 98.26L90.31 93.58L88.72 93.58L88.72 92.4L93.17 92.4L93.17 93.58L91.6 93.58ZM137.32 92.4L138.41 92.4L138.41 98.26L137.19 98.26L137.19 94.69L135.32 97.47L133.43 94.69L133.43 98.26L132.22 98.26L132.22 92.4L133.31 92.4L135.32 95.4L137.32 92.4ZM151.19 92.4L152.44 92.4L152.44 98.26L151.38 98.26L148.49 94.52L148.49 98.26L147.23 98.26L147.23 92.4L148.38 92.4L151.19 96.04L151.19 92.4ZM157.18 93.58L157.18 98.26L155.88 98.26L155.88 93.58L154.29 93.58L154.29 92.4L158.74 92.4L158.74 93.58L157.18 93.58ZM142.16 93.58L142.16 94.68L144.69 94.68L144.69 95.83L142.16 95.83L142.16 97.08L144.93 97.08L144.93 98.26L140.87 98.26L140.87 92.4L144.87 92.4L144.87 93.58L142.16 93.58ZM128.52 92.4L129.77 92.4L129.77 98.26L128.71 98.26L125.81 94.52L125.81 98.26L124.55 98.26L124.55 92.4L125.71 92.4L128.52 96.04L128.52 92.4ZM110.5 93.58L110.5 98.26L109.21 98.26L109.21 93.58L107.62 93.58L107.62 92.4L112.06 92.4L112.06 93.58L110.5 93.58ZM76.61 93.58L76.61 94.68L79.14 94.68L79.14 95.83L76.61 95.83L76.61 97.08L79.38 97.08L79.38 98.26L75.32 98.26L75.32 92.4L79.32 92.4L79.32 93.58L76.61 93.58ZM85.63 92.4L86.88 92.4L86.88 98.26L85.82 98.26L82.92 94.52L82.92 98.26L81.67 98.26L81.67 92.4L82.82 92.4L85.63 96.04L85.63 92.4ZM120.8 98.26L120.8 92.4L122.09 92.4L122.09 98.26L120.8 98.26ZM104.63 92.53L104.97 92.71L105.27 92.96L105.52 93.25L105.71 93.59L105.82 93.95L105.85 94.34L105.78 94.85L105.56 95.32L105.23 95.71L104.78 95.98L106.21 98.24L104.75 98.24L103.54 96.29L102.67 96.29L102.67 98.24L101.39 98.24L101.39 92.39L103.87 92.39L104.26 92.42L104.63 92.53ZM116.76 96.24L115.91 94.12L115.05 96.24L116.76 96.24ZM102.69 95.17L103.71 95.17L103.74 95.18L103.78 95.18L103.82 95.18L103.85 95.18L104.15 95.1L104.39 94.92L104.54 94.66L104.58 94.35L104.58 94.35L104.58 94.33L104.58 94.33L104.53 94.04L104.37 93.8L104.14 93.64L103.85 93.58L102.69 93.58L102.69 95.17Z" id="b3c9Mc5Lzd"></path></defs><g><g><use xlink:href="#cbEHyUhyQ" opacity="1" fill="#a01d25" fill-opacity="1"></use><g><use xlink:href="#cbEHyUhyQ" opacity="1" fill-opacity="0" stroke="#000000" stroke-width="1" stroke-opacity="0"></use></g></g><g><use xlink:href="#c6D5ZsAJK" opacity="1" fill="#ed1c24" fill-opacity="1"></use><g><use xlink:href="#c6D5ZsAJK" opacity="1" fill-opacity="0" stroke="#000000" stroke-width="1" stroke-opacity="0"></use></g></g><g><use xlink:href="#b2p0BtuVXP" opacity="1" fill="#231f20" fill-opacity="1"></use><g><use xlink:href="#b2p0BtuVXP" opacity="1" fill-opacity="0" stroke="#000000" stroke-width="1" stroke-opacity="0"></use></g></g><g><use xlink:href="#b2MtS2pkW5" opacity="1" fill="#ffffff" fill-opacity="1"></use><g><use xlink:href="#b2MtS2pkW5" opacity="1" fill-opacity="0" stroke="#000000" stroke-width="1" stroke-opacity="0"></use></g></g><g><use xlink:href="#cBgVWRilZ" opacity="1" fill="#ffffff" fill-opacity="1"></use><g><use xlink:href="#cBgVWRilZ" opacity="1" fill-opacity="0" stroke="#000000" stroke-width="1" stroke-opacity="0"></use></g></g><g><use xlink:href="#b3c9Mc5Lzd" opacity="1" fill="#ffffff" fill-opacity="1"></use><g><use xlink:href="#b3c9Mc5Lzd" opacity="1" fill-opacity="0" stroke="#000000" stroke-width="1" stroke-opacity="0"></use></g></g></g></svg>